<svg width="148" height="20" viewBox="0 0 148 20" fill="none" xmlns="http://www.w3.org/2000/svg">
<path d="M1.408 15V3.08H2.688V8.44H9.088V3.08H10.368V15H9.088V9.64H2.688V15H1.408ZM13.1893 18.52C13.0186 18.52 12.8426 18.504 12.6613 18.472C12.4906 18.4507 12.3199 18.408 12.1493 18.344V17.224C12.2559 17.2347 12.3893 17.2507 12.5493 17.272C12.7199 17.304 12.8906 17.32 13.0613 17.32C13.5839 17.32 13.9839 17.208 14.2613 16.984C14.5386 16.7707 14.8106 16.3547 15.0773 15.736L15.6213 14.456L15.5893 15.512L11.9573 6.424H13.2533L16.2293 13.928H15.8932L18.8533 6.424H20.1813L16.2613 16.088C16.0906 16.504 15.8719 16.8987 15.6053 17.272C15.3493 17.6453 15.0239 17.944 14.6293 18.168C14.2346 18.4027 13.7546 18.52 13.1893 18.52ZM25.3071 15.192C24.5071 15.192 23.7871 15 23.1471 14.616C22.5071 14.2213 22.0005 13.688 21.6271 13.016C21.2645 12.3333 21.0831 11.5653 21.0831 10.712C21.0831 9.848 21.2645 9.08 21.6271 8.408C22.0005 7.736 22.5018 7.208 23.1311 6.824C23.7711 6.42933 24.4965 6.232 25.3071 6.232C26.0431 6.232 26.6991 6.392 27.2751 6.712C27.8511 7.032 28.3045 7.464 28.6351 8.008L28.4431 8.344V2.888H29.6431V15H28.4431V13.08L28.6351 13.256C28.3365 13.8747 27.8885 14.3547 27.2911 14.696C26.7045 15.0267 26.0431 15.192 25.3071 15.192ZM25.3711 13.992C25.9471 13.992 26.4645 13.848 26.9231 13.56C27.3925 13.272 27.7605 12.8827 28.0271 12.392C28.3045 11.8907 28.4431 11.3307 28.4431 10.712C28.4431 10.0933 28.3045 9.53867 28.0271 9.048C27.7605 8.54667 27.3925 8.152 26.9231 7.864C26.4645 7.576 25.9471 7.432 25.3711 7.432C24.8058 7.432 24.2938 7.576 23.8351 7.864C23.3765 8.152 23.0138 8.54133 22.7471 9.032C22.4911 9.52267 22.3631 10.0827 22.3631 10.712C22.3631 11.3307 22.4911 11.8907 22.7471 12.392C23.0138 12.8827 23.3711 13.272 23.8191 13.56C24.2778 13.848 24.7951 13.992 25.3711 13.992ZM32.107 15V6.424H33.307V7.832L33.147 7.624C33.3497 7.21867 33.6537 6.89867 34.059 6.664C34.475 6.42933 34.9763 6.312 35.563 6.312H36.107V7.512H35.355C34.7363 7.512 34.2403 7.704 33.867 8.088C33.4937 8.472 33.307 9.016 33.307 9.72V15H32.107ZM39.9933 15.192C39.4493 15.192 38.9639 15.0907 38.5373 14.888C38.1106 14.6747 37.7746 14.3867 37.5293 14.024C37.2839 13.6613 37.1613 13.2453 37.1613 12.776C37.1613 12.328 37.2573 11.9227 37.4493 11.56C37.6413 11.1867 37.9399 10.872 38.3453 10.616C38.7506 10.36 39.2679 10.1787 39.8973 10.072L43.2573 9.512V10.6L40.1853 11.112C39.5666 11.2187 39.1186 11.416 38.8413 11.704C38.5746 11.992 38.4413 12.3333 38.4413 12.728C38.4413 13.112 38.5906 13.4373 38.8893 13.704C39.1986 13.9707 39.5933 14.104 40.0733 14.104C40.6599 14.104 41.1719 13.9813 41.6093 13.736C42.0466 13.48 42.3879 13.1387 42.6333 12.712C42.8786 12.2853 43.0013 11.8107 43.0013 11.288V9.112C43.0013 8.6 42.8146 8.184 42.4413 7.864C42.0679 7.544 41.5826 7.384 40.9852 7.384C40.4626 7.384 40.0039 7.51733 39.6093 7.784C39.2146 8.04 38.9213 8.376 38.7293 8.792L37.6413 8.2C37.8013 7.83733 38.0519 7.50667 38.3932 7.208C38.7453 6.90933 39.1453 6.67467 39.5933 6.504C40.0413 6.32267 40.5053 6.232 40.9852 6.232C41.6146 6.232 42.1693 6.35467 42.6493 6.6C43.1399 6.84533 43.5186 7.18667 43.7853 7.624C44.0626 8.05067 44.2013 8.54667 44.2013 9.112V15H43.0013V13.288L43.1773 13.464C43.0279 13.784 42.7933 14.0773 42.4733 14.344C42.1639 14.6 41.7959 14.808 41.3693 14.968C40.9533 15.1173 40.4946 15.192 39.9933 15.192ZM49.7933 15.096C49.0253 15.096 48.4333 14.872 48.0173 14.424C47.6013 13.976 47.3932 13.336 47.3932 12.504V7.624H45.8092V6.424H46.2093C46.5719 6.424 46.8599 6.30667 47.0733 6.072C47.2866 5.82667 47.3932 5.52267 47.3932 5.16V4.44H48.5933V6.424H50.4813V7.624H48.5933V12.504C48.5933 12.792 48.6359 13.048 48.7213 13.272C48.8066 13.4853 48.9506 13.656 49.1533 13.784C49.3666 13.912 49.6493 13.976 50.0013 13.976C50.0866 13.976 50.1879 13.9707 50.3053 13.96C50.4226 13.9493 50.5239 13.9387 50.6093 13.928V15C50.4813 15.032 50.3373 15.0533 50.1773 15.064C50.0173 15.0853 49.8893 15.096 49.7933 15.096ZM52.7164 15V6.424H53.9164V15H52.7164ZM52.7164 4.84V3.08H53.9164V4.84H52.7164ZM60.3886 15.192C59.578 15.192 58.842 15 58.1806 14.616C57.5193 14.2213 56.9913 13.688 56.5966 13.016C56.2126 12.3333 56.0206 11.56 56.0206 10.696C56.0206 9.84267 56.2126 9.08 56.5966 8.408C56.9806 7.736 57.498 7.208 58.1486 6.824C58.81 6.42933 59.5566 6.232 60.3886 6.232C61.2206 6.232 61.962 6.424 62.6126 6.808C63.274 7.192 63.7913 7.72 64.1646 8.392C64.5486 9.064 64.7406 9.832 64.7406 10.696C64.7406 11.5707 64.5433 12.3493 64.1486 13.032C63.754 13.704 63.226 14.232 62.5646 14.616C61.914 15 61.1886 15.192 60.3886 15.192ZM60.3886 13.992C60.9646 13.992 61.482 13.848 61.9406 13.56C62.41 13.272 62.778 12.8773 63.0446 12.376C63.322 11.8747 63.4606 11.3147 63.4606 10.696C63.4606 10.0773 63.322 9.52267 63.0446 9.032C62.778 8.54133 62.41 8.152 61.9406 7.864C61.482 7.576 60.9646 7.432 60.3886 7.432C59.8126 7.432 59.29 7.576 58.8206 7.864C58.362 8.152 57.994 8.54133 57.7166 9.032C57.4393 9.52267 57.3006 10.0773 57.3006 10.696C57.3006 11.3147 57.4393 11.8747 57.7166 12.376C57.994 12.8773 58.362 13.272 58.8206 13.56C59.29 13.848 59.8126 13.992 60.3886 13.992ZM66.857 15V6.424H68.057V8.088L67.785 8.024C67.9983 7.46933 68.345 7.032 68.825 6.712C69.3157 6.392 69.881 6.232 70.521 6.232C71.129 6.232 71.673 6.37067 72.153 6.648C72.6437 6.92533 73.0277 7.30933 73.305 7.8C73.593 8.28 73.737 8.824 73.737 9.432V15H72.537V9.896C72.537 9.37333 72.441 8.93067 72.249 8.568C72.0677 8.20533 71.8063 7.928 71.465 7.736C71.1343 7.53333 70.7503 7.432 70.313 7.432C69.8757 7.432 69.4863 7.53333 69.145 7.736C68.8037 7.928 68.537 8.21067 68.345 8.584C68.153 8.94667 68.057 9.384 68.057 9.896V15H66.857ZM78.9236 15V3.08H83.9316C84.6036 3.08 85.185 3.208 85.6756 3.464C86.177 3.70933 86.561 4.056 86.8276 4.504C87.105 4.952 87.2436 5.47467 87.2436 6.072C87.2436 6.69067 87.089 7.24 86.7796 7.72C86.481 8.18933 86.049 8.54667 85.4836 8.792L85.4676 8.408C85.937 8.57867 86.337 8.81867 86.6676 9.128C87.009 9.43733 87.2703 9.8 87.4516 10.216C87.633 10.6213 87.7236 11.0587 87.7236 11.528C87.7236 12.5947 87.3823 13.4427 86.6996 14.072C86.0276 14.6907 85.1103 15 83.9476 15H78.9236ZM80.2036 13.8H83.9476C84.705 13.8 85.3076 13.6027 85.7556 13.208C86.2143 12.8027 86.4436 12.248 86.4436 11.544C86.4436 10.8507 86.2143 10.3013 85.7556 9.896C85.3076 9.48 84.705 9.272 83.9476 9.272H80.2036V13.8ZM80.2036 8.12H83.8356C84.4756 8.12 84.9876 7.93333 85.3716 7.56C85.7663 7.18667 85.9636 6.70667 85.9636 6.12C85.9636 5.52267 85.7663 5.06933 85.3716 4.76C84.9876 4.44 84.4756 4.28 83.8356 4.28H80.2036V8.12ZM93.8574 15.192C93.0467 15.192 92.3107 15 91.6494 14.616C90.988 14.2213 90.46 13.688 90.0654 13.016C89.6814 12.3333 89.4894 11.56 89.4894 10.696C89.4894 9.84267 89.6814 9.08 90.0654 8.408C90.4494 7.736 90.9667 7.208 91.6174 6.824C92.2787 6.42933 93.0254 6.232 93.8574 6.232C94.6894 6.232 95.4307 6.424 96.0814 6.808C96.7427 7.192 97.26 7.72 97.6334 8.392C98.0174 9.064 98.2094 9.832 98.2094 10.696C98.2094 11.5707 98.012 12.3493 97.6174 13.032C97.2227 13.704 96.6947 14.232 96.0334 14.616C95.3827 15 94.6574 15.192 93.8574 15.192ZM93.8574 13.992C94.4334 13.992 94.9507 13.848 95.4094 13.56C95.8787 13.272 96.2467 12.8773 96.5134 12.376C96.7907 11.8747 96.9294 11.3147 96.9294 10.696C96.9294 10.0773 96.7907 9.52267 96.5134 9.032C96.2467 8.54133 95.8787 8.152 95.4094 7.864C94.9507 7.576 94.4334 7.432 93.8574 7.432C93.2814 7.432 92.7587 7.576 92.2894 7.864C91.8307 8.152 91.4627 8.54133 91.1854 9.032C90.908 9.52267 90.7694 10.0773 90.7694 10.696C90.7694 11.3147 90.908 11.8747 91.1854 12.376C91.4627 12.8773 91.8307 13.272 92.2894 13.56C92.7587 13.848 93.2814 13.992 93.8574 13.992ZM104.342 15.192C103.531 15.192 102.795 15 102.134 14.616C101.472 14.2213 100.944 13.688 100.55 13.016C100.166 12.3333 99.9738 11.56 99.9738 10.696C99.9738 9.84267 100.166 9.08 100.55 8.408C100.934 7.736 101.451 7.208 102.102 6.824C102.763 6.42933 103.51 6.232 104.342 6.232C105.174 6.232 105.915 6.424 106.566 6.808C107.227 7.192 107.744 7.72 108.118 8.392C108.502 9.064 108.694 9.832 108.694 10.696C108.694 11.5707 108.496 12.3493 108.102 13.032C107.707 13.704 107.179 14.232 106.518 14.616C105.867 15 105.142 15.192 104.342 15.192ZM104.342 13.992C104.918 13.992 105.435 13.848 105.894 13.56C106.363 13.272 106.731 12.8773 106.998 12.376C107.275 11.8747 107.414 11.3147 107.414 10.696C107.414 10.0773 107.275 9.52267 106.998 9.032C106.731 8.54133 106.363 8.152 105.894 7.864C105.435 7.576 104.918 7.432 104.342 7.432C103.766 7.432 103.243 7.576 102.774 7.864C102.315 8.152 101.947 8.54133 101.67 9.032C101.392 9.52267 101.254 10.0773 101.254 10.696C101.254 11.3147 101.392 11.8747 101.67 12.376C101.947 12.8773 102.315 13.272 102.774 13.56C103.243 13.848 103.766 13.992 104.342 13.992ZM113.786 15.192C112.965 15.192 112.245 14.984 111.626 14.568C111.007 14.152 110.559 13.5867 110.282 12.872L111.29 12.392C111.535 12.9147 111.877 13.3307 112.314 13.64C112.762 13.9493 113.253 14.104 113.786 14.104C114.298 14.104 114.73 13.9813 115.082 13.736C115.434 13.48 115.61 13.1493 115.61 12.744C115.61 12.4453 115.525 12.2107 115.354 12.04C115.183 11.8587 114.986 11.72 114.762 11.624C114.538 11.528 114.341 11.4587 114.17 11.416L112.938 11.064C112.149 10.84 111.578 10.5253 111.226 10.12C110.874 9.71467 110.698 9.24533 110.698 8.712C110.698 8.21067 110.826 7.77333 111.082 7.4C111.338 7.02667 111.685 6.73867 112.122 6.536C112.559 6.33333 113.045 6.232 113.578 6.232C114.303 6.232 114.959 6.424 115.546 6.808C116.143 7.18133 116.565 7.704 116.81 8.376L115.786 8.856C115.573 8.376 115.263 8.00267 114.858 7.736C114.463 7.45867 114.021 7.32 113.53 7.32C113.05 7.32 112.666 7.44267 112.378 7.688C112.09 7.93333 111.946 8.24267 111.946 8.616C111.946 8.904 112.021 9.13333 112.17 9.304C112.319 9.47467 112.49 9.60267 112.682 9.688C112.885 9.77333 113.061 9.83733 113.21 9.88L114.634 10.296C115.327 10.4987 115.866 10.8133 116.25 11.24C116.645 11.6667 116.842 12.168 116.842 12.744C116.842 13.2133 116.709 13.6347 116.442 14.008C116.186 14.3813 115.829 14.6747 115.37 14.888C114.911 15.0907 114.383 15.192 113.786 15.192ZM122.231 15.096C121.463 15.096 120.871 14.872 120.455 14.424C120.039 13.976 119.831 13.336 119.831 12.504V7.624H118.247V6.424H118.647C119.009 6.424 119.297 6.30667 119.511 6.072C119.724 5.82667 119.831 5.52267 119.831 5.16V4.44H121.031V6.424H122.919V7.624H121.031V12.504C121.031 12.792 121.073 13.048 121.159 13.272C121.244 13.4853 121.388 13.656 121.591 13.784C121.804 13.912 122.087 13.976 122.439 13.976C122.524 13.976 122.625 13.9707 122.743 13.96C122.86 13.9493 122.961 13.9387 123.047 13.928V15C122.919 15.032 122.775 15.0533 122.615 15.064C122.455 15.0853 122.327 15.096 122.231 15.096Z" fill="white"/>
<path d="M133 7.5L138 12.5L143 7.5" stroke="white" stroke-width="1.5" stroke-linecap="round" stroke-linejoin="round"/>
</svg>
