<svg width="125" height="20" viewBox="0 0 125 20" fill="none" xmlns="http://www.w3.org/2000/svg">
<path d="M3.6 15L0.176 3.08H1.472L4.432 13.752H4.16L7.2 3.08H8.56L11.584 13.752H11.296L14.272 3.08H15.568L12.144 15H10.784L7.728 4.28H8.016L4.96 15H3.6ZM16.982 15V2.888H18.182V8.088L17.91 8.024C18.1233 7.46933 18.47 7.032 18.95 6.712C19.4407 6.392 20.006 6.232 20.646 6.232C21.254 6.232 21.798 6.37067 22.278 6.648C22.7687 6.92533 23.1527 7.30933 23.43 7.8C23.718 8.28 23.862 8.824 23.862 9.432V15H22.662V9.896C22.662 9.37333 22.566 8.93067 22.374 8.568C22.182 8.20533 21.9153 7.928 21.574 7.736C21.2433 7.53333 20.8647 7.432 20.438 7.432C20.0113 7.432 19.6273 7.53333 19.286 7.736C18.9447 7.928 18.6727 8.21067 18.47 8.584C18.278 8.94667 18.182 9.384 18.182 9.896V15H16.982ZM30.0579 15.192C29.2579 15.192 28.5325 15 27.8819 14.616C27.2419 14.2213 26.7352 13.6827 26.3619 13C25.9885 12.3173 25.8019 11.544 25.8019 10.68C25.8019 9.816 25.9832 9.05333 26.3459 8.392C26.7085 7.72 27.1992 7.192 27.8179 6.808C28.4472 6.424 29.1512 6.232 29.9299 6.232C30.5485 6.232 31.0979 6.34933 31.5779 6.584C32.0685 6.808 32.4845 7.11733 32.8259 7.512C33.1672 7.896 33.4285 8.33333 33.6099 8.824C33.7912 9.304 33.8819 9.8 33.8819 10.312C33.8819 10.4187 33.8765 10.5413 33.8659 10.68C33.8552 10.808 33.8392 10.9413 33.8179 11.08H26.5699V9.96H33.1299L32.5539 10.44C32.6499 9.85333 32.5805 9.33067 32.3459 8.872C32.1219 8.40267 31.7965 8.03467 31.3699 7.768C30.9432 7.49067 30.4632 7.352 29.9299 7.352C29.3965 7.352 28.9005 7.49067 28.4419 7.768C27.9939 8.04533 27.6419 8.43467 27.3859 8.936C27.1299 9.42667 27.0285 10.0133 27.0819 10.696C27.0285 11.3787 27.1352 11.976 27.4019 12.488C27.6792 12.9893 28.0525 13.3787 28.5219 13.656C29.0019 13.9333 29.5139 14.072 30.0579 14.072C30.6872 14.072 31.2152 13.9227 31.6419 13.624C32.0685 13.3253 32.4152 12.952 32.6819 12.504L33.7059 13.048C33.5352 13.432 33.2739 13.7893 32.9219 14.12C32.5699 14.44 32.1485 14.7013 31.6579 14.904C31.1779 15.096 30.6445 15.192 30.0579 15.192ZM36.1736 18.52C36.003 18.52 35.827 18.504 35.6456 18.472C35.475 18.4507 35.3043 18.408 35.1336 18.344V17.224C35.2403 17.2347 35.3736 17.2507 35.5336 17.272C35.7043 17.304 35.875 17.32 36.0456 17.32C36.5683 17.32 36.9683 17.208 37.2456 16.984C37.523 16.7707 37.795 16.3547 38.0616 15.736L38.6056 14.456L38.5736 15.512L34.9416 6.424H36.2376L39.2136 13.928H38.8776L41.8376 6.424H43.1656L39.2456 16.088C39.075 16.504 38.8563 16.8987 38.5896 17.272C38.3336 17.6453 38.0083 17.944 37.6136 18.168C37.219 18.4027 36.739 18.52 36.1736 18.52ZM47.4705 15V3.08H51.5665C52.3452 3.08 53.0278 3.23467 53.6145 3.544C54.2012 3.84267 54.6545 4.26933 54.9745 4.824C55.3052 5.368 55.4705 6.00267 55.4705 6.728C55.4705 7.45333 55.3052 8.088 54.9745 8.632C54.6545 9.176 54.2012 9.60267 53.6145 9.912C53.0385 10.2107 52.3558 10.36 51.5665 10.36H48.7505V15H47.4705ZM48.7505 9.16H51.6305C52.1425 9.16 52.5905 9.064 52.9745 8.872C53.3585 8.66933 53.6572 8.38667 53.8705 8.024C54.0838 7.65067 54.1905 7.21333 54.1905 6.712C54.1905 6.21067 54.0838 5.77867 53.8705 5.416C53.6572 5.05333 53.3585 4.776 52.9745 4.584C52.5905 4.38133 52.1425 4.28 51.6305 4.28H48.7505V9.16ZM57.5758 15V6.424H58.7758V7.832L58.6158 7.624C58.8184 7.21867 59.1224 6.89867 59.5278 6.664C59.9438 6.42933 60.4451 6.312 61.0318 6.312H61.5758V7.512H60.8238C60.2051 7.512 59.7091 7.704 59.3358 8.088C58.9624 8.472 58.7758 9.016 58.7758 9.72V15H57.5758ZM66.998 15.192C66.1873 15.192 65.4513 15 64.79 14.616C64.1287 14.2213 63.6007 13.688 63.206 13.016C62.822 12.3333 62.63 11.56 62.63 10.696C62.63 9.84267 62.822 9.08 63.206 8.408C63.59 7.736 64.1073 7.208 64.758 6.824C65.4193 6.42933 66.166 6.232 66.998 6.232C67.83 6.232 68.5713 6.424 69.222 6.808C69.8833 7.192 70.4007 7.72 70.774 8.392C71.158 9.064 71.35 9.832 71.35 10.696C71.35 11.5707 71.1527 12.3493 70.758 13.032C70.3633 13.704 69.8353 14.232 69.174 14.616C68.5233 15 67.798 15.192 66.998 15.192ZM66.998 13.992C67.574 13.992 68.0913 13.848 68.55 13.56C69.0193 13.272 69.3873 12.8773 69.654 12.376C69.9313 11.8747 70.07 11.3147 70.07 10.696C70.07 10.0773 69.9313 9.52267 69.654 9.032C69.3873 8.54133 69.0193 8.152 68.55 7.864C68.0913 7.576 67.574 7.432 66.998 7.432C66.422 7.432 65.8993 7.576 65.43 7.864C64.9713 8.152 64.6033 8.54133 64.326 9.032C64.0487 9.52267 63.91 10.0773 63.91 10.696C63.91 11.3147 64.0487 11.8747 64.326 12.376C64.6033 12.8773 64.9713 13.272 65.43 13.56C65.8993 13.848 66.422 13.992 66.998 13.992ZM76.5901 15.096C75.8221 15.096 75.2301 14.872 74.8141 14.424C74.3981 13.976 74.1901 13.336 74.1901 12.504V7.624H72.6061V6.424H73.0061C73.3688 6.424 73.6568 6.30667 73.8701 6.072C74.0835 5.82667 74.1901 5.52267 74.1901 5.16V4.44H75.3901V6.424H77.2781V7.624H75.3901V12.504C75.3901 12.792 75.4328 13.048 75.5181 13.272C75.6035 13.4853 75.7475 13.656 75.9501 13.784C76.1635 13.912 76.4461 13.976 76.7981 13.976C76.8835 13.976 76.9848 13.9707 77.1021 13.96C77.2195 13.9493 77.3208 13.9387 77.4061 13.928V15C77.2781 15.032 77.1341 15.0533 76.9741 15.064C76.8141 15.0853 76.6861 15.096 76.5901 15.096ZM83.1048 15.192C82.3048 15.192 81.5794 15 80.9288 14.616C80.2888 14.2213 79.7821 13.6827 79.4088 13C79.0354 12.3173 78.8488 11.544 78.8488 10.68C78.8488 9.816 79.0301 9.05333 79.3928 8.392C79.7554 7.72 80.2461 7.192 80.8648 6.808C81.4941 6.424 82.1981 6.232 82.9768 6.232C83.5954 6.232 84.1448 6.34933 84.6248 6.584C85.1154 6.808 85.5314 7.11733 85.8728 7.512C86.2141 7.896 86.4754 8.33333 86.6568 8.824C86.8381 9.304 86.9288 9.8 86.9288 10.312C86.9288 10.4187 86.9234 10.5413 86.9128 10.68C86.9021 10.808 86.8861 10.9413 86.8648 11.08H79.6168V9.96H86.1768L85.6008 10.44C85.6968 9.85333 85.6274 9.33067 85.3928 8.872C85.1688 8.40267 84.8434 8.03467 84.4168 7.768C83.9901 7.49067 83.5101 7.352 82.9768 7.352C82.4434 7.352 81.9474 7.49067 81.4888 7.768C81.0408 8.04533 80.6888 8.43467 80.4328 8.936C80.1768 9.42667 80.0754 10.0133 80.1288 10.696C80.0754 11.3787 80.1821 11.976 80.4488 12.488C80.7261 12.9893 81.0994 13.3787 81.5688 13.656C82.0488 13.9333 82.5608 14.072 83.1048 14.072C83.7341 14.072 84.2621 13.9227 84.6888 13.624C85.1154 13.3253 85.4621 12.952 85.7288 12.504L86.7528 13.048C86.5821 13.432 86.3208 13.7893 85.9688 14.12C85.6168 14.44 85.1954 14.7013 84.7048 14.904C84.2248 15.096 83.6914 15.192 83.1048 15.192ZM89.0445 15V6.424H90.2445V15H89.0445ZM89.0445 4.84V3.08H90.2445V4.84H89.0445ZM92.7008 15V6.424H93.9008V8.088L93.6288 8.024C93.8421 7.46933 94.1888 7.032 94.6688 6.712C95.1594 6.392 95.7248 6.232 96.3648 6.232C96.9728 6.232 97.5168 6.37067 97.9968 6.648C98.4874 6.92533 98.8714 7.30933 99.1488 7.8C99.4368 8.28 99.5808 8.824 99.5808 9.432V15H98.3808V9.896C98.3808 9.37333 98.2848 8.93067 98.0928 8.568C97.9114 8.20533 97.6501 7.928 97.3088 7.736C96.9781 7.53333 96.5941 7.432 96.1568 7.432C95.7194 7.432 95.3301 7.53333 94.9888 7.736C94.6474 7.928 94.3808 8.21067 94.1888 8.584C93.9968 8.94667 93.9008 9.384 93.9008 9.896V15H92.7008Z" fill="white"/>
<path d="M110 7.5L115 12.5L120 7.5" stroke="white" stroke-width="1.5" stroke-linecap="round" stroke-linejoin="round"/>
</svg>
