<svg width="240" height="48" viewBox="0 0 240 48" fill="none" xmlns="http://www.w3.org/2000/svg">
<rect width="240" height="48" rx="24" fill="white"/>
<path d="M81.6066 29.16C79.1586 29.16 77.5746 27.688 77.4626 25.464H79.6706C79.7986 26.408 80.5346 27.032 81.6066 27.032C82.5506 27.032 83.2066 26.68 83.2066 25.912C83.2066 25.288 82.8386 24.936 82.0546 24.728L80.1666 24.216C78.4546 23.752 77.6066 22.552 77.6066 20.904C77.6066 18.664 79.3666 17.64 81.3186 17.64C83.5586 17.64 84.9506 18.952 85.1906 20.856H82.9826C82.7906 20.104 82.0066 19.768 81.2866 19.768C80.3906 19.768 79.7506 20.12 79.7506 20.904C79.7506 21.56 80.2626 21.848 80.8706 22.008L82.6946 22.504C84.4226 22.968 85.3506 24.024 85.3506 25.912C85.3506 27.928 84.0386 29.16 81.6066 29.16ZM94.7268 22.28V17.8H96.8708V29H94.7268V24.408H90.5668V29H88.4228V17.8H90.5668V22.28H94.7268ZM108.666 25.016C108.666 27.496 107.13 29.16 104.442 29.16C101.754 29.16 100.218 27.496 100.218 25.016V21.784C100.218 19.304 101.754 17.64 104.442 17.64C107.13 17.64 108.666 19.304 108.666 21.784V25.016ZM106.522 25.016V21.784C106.522 20.488 105.61 19.768 104.442 19.768C103.274 19.768 102.362 20.488 102.362 21.784V25.016C102.362 26.312 103.274 27.032 104.442 27.032C105.61 27.032 106.522 26.312 106.522 25.016ZM114.157 23.432H116.589C117.773 23.432 118.317 22.536 118.317 21.672C118.317 20.808 117.773 19.928 116.589 19.928H114.157V23.432ZM114.157 25.56V29H112.013V17.8H116.589C119.245 17.8 120.461 19.624 120.461 21.672C120.461 23.704 119.245 25.56 116.589 25.56H114.157ZM136.74 17.8V29H134.596L130.436 21.784V29H128.292V17.8H130.436L134.596 25.016V17.8H136.74ZM148.535 25.016C148.535 27.496 146.999 29.16 144.311 29.16C141.623 29.16 140.087 27.496 140.087 25.016V21.784C140.087 19.304 141.623 17.64 144.311 17.64C146.999 17.64 148.535 19.304 148.535 21.784V25.016ZM146.391 25.016V21.784C146.391 20.488 145.479 19.768 144.311 19.768C143.143 19.768 142.231 20.488 142.231 21.784V25.016C142.231 26.312 143.143 27.032 144.311 27.032C145.479 27.032 146.391 26.312 146.391 25.016ZM158.298 29L156.858 22.504L155.418 29H153.098L151.034 17.8H153.194L154.49 25.384L155.818 19.4H157.898L159.226 25.384L160.522 17.8H162.682L160.618 29H158.298Z" fill="#141414"/>
</svg>
