<svg width="62" height="19" viewBox="0 0 62 19" fill="none" xmlns="http://www.w3.org/2000/svg">
<path d="M5.424 15.192C4.66667 15.192 3.97867 15.048 3.36 14.76C2.74133 14.472 2.21867 14.088 1.792 13.608C1.36533 13.1173 1.06133 12.5787 0.88 11.992L2.032 11.56C2.30933 12.3707 2.74133 12.9893 3.328 13.416C3.91467 13.832 4.61333 14.04 5.424 14.04C5.936 14.04 6.384 13.96 6.768 13.8C7.16267 13.6293 7.46667 13.3947 7.68 13.096C7.89333 12.7973 8 12.4507 8 12.056C8 11.4693 7.84 11.016 7.52 10.696C7.2 10.376 6.74133 10.1307 6.144 9.96L4 9.32C3.15733 9.07467 2.50667 8.664 2.048 8.088C1.6 7.512 1.376 6.856 1.376 6.12C1.376 5.49067 1.53067 4.936 1.84 4.456C2.14933 3.96533 2.57067 3.58133 3.104 3.304C3.648 3.02667 4.26133 2.888 4.944 2.888C5.65867 2.888 6.29867 3.02133 6.864 3.288C7.44 3.544 7.92533 3.88533 8.32 4.312C8.71467 4.73867 8.99733 5.21333 9.168 5.736L8.048 6.184C7.792 5.48 7.392 4.94667 6.848 4.584C6.31467 4.22133 5.68533 4.04 4.96 4.04C4.50133 4.04 4.096 4.12 3.744 4.28C3.40267 4.44 3.136 4.66933 2.944 4.968C2.752 5.26667 2.656 5.61867 2.656 6.024C2.656 6.51467 2.81067 6.95733 3.12 7.352C3.42933 7.736 3.904 8.024 4.544 8.216L6.432 8.776C7.37067 9.05333 8.08 9.45333 8.56 9.976C9.04 10.4987 9.28 11.1547 9.28 11.944C9.28 12.584 9.11467 13.1493 8.784 13.64C8.464 14.12 8.01067 14.4987 7.424 14.776C6.848 15.0533 6.18133 15.192 5.424 15.192ZM11.5758 15V2.888H12.7758V8.088L12.5038 8.024C12.7171 7.46933 13.0638 7.032 13.5438 6.712C14.0344 6.392 14.5998 6.232 15.2398 6.232C15.8478 6.232 16.3918 6.37067 16.8718 6.648C17.3624 6.92533 17.7464 7.30933 18.0238 7.8C18.3118 8.28 18.4558 8.824 18.4558 9.432V15H17.2558V9.896C17.2558 9.37333 17.1598 8.93067 16.9678 8.568C16.7758 8.20533 16.5091 7.928 16.1678 7.736C15.8371 7.53333 15.4584 7.432 15.0318 7.432C14.6051 7.432 14.2211 7.53333 13.8798 7.736C13.5384 7.928 13.2664 8.21067 13.0638 8.584C12.8718 8.94667 12.7758 9.384 12.7758 9.896V15H11.5758ZM24.7636 15.192C23.953 15.192 23.217 15 22.5556 14.616C21.8943 14.2213 21.3663 13.688 20.9716 13.016C20.5876 12.3333 20.3956 11.56 20.3956 10.696C20.3956 9.84267 20.5876 9.08 20.9716 8.408C21.3556 7.736 21.873 7.208 22.5236 6.824C23.185 6.42933 23.9316 6.232 24.7636 6.232C25.5956 6.232 26.337 6.424 26.9876 6.808C27.649 7.192 28.1663 7.72 28.5396 8.392C28.9236 9.064 29.1156 9.832 29.1156 10.696C29.1156 11.5707 28.9183 12.3493 28.5236 13.032C28.129 13.704 27.601 14.232 26.9396 14.616C26.289 15 25.5636 15.192 24.7636 15.192ZM24.7636 13.992C25.3396 13.992 25.857 13.848 26.3156 13.56C26.785 13.272 27.153 12.8773 27.4196 12.376C27.697 11.8747 27.8356 11.3147 27.8356 10.696C27.8356 10.0773 27.697 9.52267 27.4196 9.032C27.153 8.54133 26.785 8.152 26.3156 7.864C25.857 7.576 25.3396 7.432 24.7636 7.432C24.1876 7.432 23.665 7.576 23.1956 7.864C22.737 8.152 22.369 8.54133 22.0916 9.032C21.8143 9.52267 21.6756 10.0773 21.6756 10.696C21.6756 11.3147 21.8143 11.8747 22.0916 12.376C22.369 12.8773 22.737 13.272 23.1956 13.56C23.665 13.848 24.1876 13.992 24.7636 13.992ZM31.232 18.2V6.424H32.432V8.344L32.24 8.008C32.5813 7.464 33.0347 7.032 33.6 6.712C34.176 6.392 34.832 6.232 35.568 6.232C36.3787 6.232 37.0987 6.42933 37.728 6.824C38.368 7.208 38.8693 7.736 39.232 8.408C39.6053 9.08 39.792 9.848 39.792 10.712C39.792 11.5653 39.6053 12.3333 39.232 13.016C38.8693 13.688 38.368 14.2213 37.728 14.616C37.0987 15 36.3787 15.192 35.568 15.192C34.832 15.192 34.1653 15.0267 33.568 14.696C32.9813 14.3547 32.5387 13.8747 32.24 13.256L32.432 13.08V18.2H31.232ZM35.504 13.992C36.08 13.992 36.592 13.848 37.04 13.56C37.4987 13.272 37.856 12.8827 38.112 12.392C38.3787 11.8907 38.512 11.3307 38.512 10.712C38.512 10.0827 38.3787 9.52267 38.112 9.032C37.856 8.54133 37.4987 8.152 37.04 7.864C36.592 7.576 36.08 7.432 35.504 7.432C34.928 7.432 34.4053 7.576 33.936 7.864C33.4773 8.152 33.1093 8.54667 32.832 9.048C32.5653 9.53867 32.432 10.0933 32.432 10.712C32.432 11.3307 32.5653 11.8907 32.832 12.392C33.1093 12.8827 33.4773 13.272 33.936 13.56C34.4053 13.848 34.928 13.992 35.504 13.992ZM43.5666 15L47.9186 3.08H49.2946L53.6466 15H52.3026L51.2786 12.088H45.9506L44.9106 15H43.5666ZM46.3666 10.888H50.8306L48.4146 4.04H48.7986L46.3666 10.888ZM55.0601 15V2.888H56.2601V15H55.0601ZM58.7164 15V2.888H59.9164V15H58.7164Z" fill="white"/>
</svg>
