<svg width="120" height="28" viewBox="0 0 120 28" fill="none" xmlns="http://www.w3.org/2000/svg">
<path d="M1.408 19V7.08H5.328C6.512 7.08 7.54133 7.32533 8.416 7.816C9.29067 8.296 9.968 8.984 10.448 9.88C10.928 10.7653 11.168 11.816 11.168 13.032C11.168 14.2373 10.928 15.288 10.448 16.184C9.968 17.08 9.29067 17.7733 8.416 18.264C7.54133 18.7547 6.512 19 5.328 19H1.408ZM2.688 17.8H5.328C6.24533 17.8 7.04 17.608 7.712 17.224C8.384 16.8293 8.90133 16.2747 9.264 15.56C9.63733 14.8453 9.824 14.0027 9.824 13.032C9.824 12.0613 9.63733 11.224 9.264 10.52C8.89067 9.80533 8.368 9.256 7.696 8.872C7.024 8.47733 6.23467 8.28 5.328 8.28H2.688V17.8ZM15.4308 19.192C14.8868 19.192 14.4014 19.0907 13.9748 18.888C13.5481 18.6747 13.2121 18.3867 12.9668 18.024C12.7214 17.6613 12.5988 17.2453 12.5988 16.776C12.5988 16.328 12.6948 15.9227 12.8868 15.56C13.0788 15.1867 13.3774 14.872 13.7828 14.616C14.1881 14.36 14.7054 14.1787 15.3348 14.072L18.6948 13.512V14.6L15.6228 15.112C15.0041 15.2187 14.5561 15.416 14.2788 15.704C14.0121 15.992 13.8788 16.3333 13.8788 16.728C13.8788 17.112 14.0281 17.4373 14.3268 17.704C14.6361 17.9707 15.0308 18.104 15.5108 18.104C16.0974 18.104 16.6094 17.9813 17.0468 17.736C17.4841 17.48 17.8254 17.1387 18.0708 16.712C18.3161 16.2853 18.4388 15.8107 18.4388 15.288V13.112C18.4388 12.6 18.2521 12.184 17.8788 11.864C17.5054 11.544 17.0201 11.384 16.4227 11.384C15.9001 11.384 15.4414 11.5173 15.0468 11.784C14.6521 12.04 14.3588 12.376 14.1668 12.792L13.0788 12.2C13.2388 11.8373 13.4894 11.5067 13.8307 11.208C14.1828 10.9093 14.5828 10.6747 15.0308 10.504C15.4788 10.3227 15.9428 10.232 16.4227 10.232C17.0521 10.232 17.6068 10.3547 18.0868 10.6C18.5774 10.8453 18.9561 11.1867 19.2228 11.624C19.5001 12.0507 19.6388 12.5467 19.6388 13.112V19H18.4388V17.288L18.6148 17.464C18.4654 17.784 18.2308 18.0773 17.9108 18.344C17.6014 18.6 17.2334 18.808 16.8068 18.968C16.3908 19.1173 15.9321 19.192 15.4308 19.192ZM22.107 19V10.424H23.307V19H22.107ZM22.107 8.84V7.08H23.307V8.84H22.107ZM25.7633 19V6.888H26.9633V19H25.7633ZM29.5955 22.52C29.4248 22.52 29.2488 22.504 29.0675 22.472C28.8968 22.4507 28.7262 22.408 28.5555 22.344V21.224C28.6622 21.2347 28.7955 21.2507 28.9555 21.272C29.1262 21.304 29.2968 21.32 29.4675 21.32C29.9902 21.32 30.3902 21.208 30.6675 20.984C30.9448 20.7707 31.2168 20.3547 31.4835 19.736L32.0275 18.456L31.9955 19.512L28.3635 10.424H29.6595L32.6355 17.928H32.2995L35.2595 10.424H36.5875L32.6675 20.088C32.4968 20.504 32.2782 20.8987 32.0115 21.272C31.7555 21.6453 31.4302 21.944 31.0355 22.168C30.6408 22.4027 30.1608 22.52 29.5955 22.52ZM46.3324 19.192C45.4897 19.192 44.7164 19.0427 44.0124 18.744C43.3084 18.4347 42.695 18.008 42.1724 17.464C41.6604 16.9093 41.2604 16.2587 40.9724 15.512C40.6844 14.7653 40.5404 13.944 40.5404 13.048C40.5404 12.152 40.6844 11.3307 40.9724 10.584C41.2604 9.83733 41.6604 9.18667 42.1724 8.632C42.695 8.07733 43.3084 7.65067 44.0124 7.352C44.7164 7.04267 45.4897 6.888 46.3324 6.888C47.143 6.888 47.8684 7.032 48.5084 7.32C49.159 7.608 49.703 7.98133 50.1404 8.44C50.5884 8.888 50.9084 9.36267 51.1004 9.864L49.9484 10.424C49.6497 9.69867 49.191 9.128 48.5724 8.712C47.9537 8.296 47.207 8.088 46.3324 8.088C45.4577 8.088 44.679 8.296 43.9964 8.712C43.3137 9.128 42.7804 9.70933 42.3964 10.456C42.0124 11.192 41.8204 12.056 41.8204 13.048C41.8204 14.0293 42.0124 14.8933 42.3964 15.64C42.7804 16.3867 43.3137 16.968 43.9964 17.384C44.679 17.7893 45.4577 17.992 46.3324 17.992C47.111 17.992 47.8097 17.8213 48.4284 17.48C49.0577 17.1387 49.5537 16.6747 49.9164 16.088C50.279 15.4907 50.4604 14.808 50.4604 14.04V13.384L51.0364 13.96H46.3324V12.84H51.7404V13.832C51.7404 14.6107 51.6017 15.3307 51.3244 15.992C51.047 16.6427 50.663 17.208 50.1724 17.688C49.6817 18.168 49.1057 18.5413 48.4444 18.808C47.7937 19.064 47.0897 19.192 46.3324 19.192ZM53.857 19V10.424H55.057V11.832L54.897 11.624C55.0997 11.2187 55.4037 10.8987 55.809 10.664C56.225 10.4293 56.7263 10.312 57.313 10.312H57.857V11.512H57.105C56.4863 11.512 55.9903 11.704 55.617 12.088C55.2437 12.472 55.057 13.016 55.057 13.72V19H53.857ZM63.1673 19.192C62.3673 19.192 61.6419 19 60.9913 18.616C60.3513 18.2213 59.8446 17.6827 59.4713 17C59.0979 16.3173 58.9113 15.544 58.9113 14.68C58.9113 13.816 59.0926 13.0533 59.4553 12.392C59.8179 11.72 60.3086 11.192 60.9273 10.808C61.5566 10.424 62.2606 10.232 63.0393 10.232C63.6579 10.232 64.2073 10.3493 64.6873 10.584C65.1779 10.808 65.5939 11.1173 65.9353 11.512C66.2766 11.896 66.5379 12.3333 66.7193 12.824C66.9006 13.304 66.9913 13.8 66.9913 14.312C66.9913 14.4187 66.9859 14.5413 66.9753 14.68C66.9646 14.808 66.9486 14.9413 66.9273 15.08H59.6793V13.96H66.2393L65.6633 14.44C65.7593 13.8533 65.6899 13.3307 65.4553 12.872C65.2313 12.4027 64.9059 12.0347 64.4793 11.768C64.0526 11.4907 63.5726 11.352 63.0393 11.352C62.5059 11.352 62.0099 11.4907 61.5513 11.768C61.1033 12.0453 60.7513 12.4347 60.4953 12.936C60.2393 13.4267 60.1379 14.0133 60.1913 14.696C60.1379 15.3787 60.2446 15.976 60.5113 16.488C60.7886 16.9893 61.1619 17.3787 61.6313 17.656C62.1113 17.9333 62.6233 18.072 63.1673 18.072C63.7966 18.072 64.3246 17.9227 64.7513 17.624C65.1779 17.3253 65.5246 16.952 65.7913 16.504L66.8153 17.048C66.6446 17.432 66.3833 17.7893 66.0312 18.12C65.6793 18.44 65.2579 18.7013 64.7673 18.904C64.2873 19.096 63.7539 19.192 63.1673 19.192ZM73.011 19.192C72.211 19.192 71.4857 19 70.835 18.616C70.195 18.2213 69.6883 17.6827 69.315 17C68.9417 16.3173 68.755 15.544 68.755 14.68C68.755 13.816 68.9363 13.0533 69.299 12.392C69.6617 11.72 70.1523 11.192 70.771 10.808C71.4003 10.424 72.1043 10.232 72.883 10.232C73.5017 10.232 74.051 10.3493 74.531 10.584C75.0217 10.808 75.4377 11.1173 75.779 11.512C76.1203 11.896 76.3817 12.3333 76.563 12.824C76.7443 13.304 76.835 13.8 76.835 14.312C76.835 14.4187 76.8297 14.5413 76.819 14.68C76.8083 14.808 76.7923 14.9413 76.771 15.08H69.523V13.96H76.083L75.507 14.44C75.603 13.8533 75.5337 13.3307 75.299 12.872C75.075 12.4027 74.7497 12.0347 74.323 11.768C73.8963 11.4907 73.4163 11.352 72.883 11.352C72.3497 11.352 71.8537 11.4907 71.395 11.768C70.947 12.0453 70.595 12.4347 70.339 12.936C70.083 13.4267 69.9817 14.0133 70.035 14.696C69.9817 15.3787 70.0883 15.976 70.355 16.488C70.6323 16.9893 71.0057 17.3787 71.475 17.656C71.955 17.9333 72.467 18.072 73.011 18.072C73.6403 18.072 74.1683 17.9227 74.595 17.624C75.0217 17.3253 75.3683 16.952 75.635 16.504L76.659 17.048C76.4883 17.432 76.227 17.7893 75.875 18.12C75.523 18.44 75.1017 18.7013 74.611 18.904C74.131 19.096 73.5977 19.192 73.011 19.192ZM78.9508 19V10.424H80.1508V12.088L79.8788 12.024C80.0921 11.4693 80.4388 11.032 80.9188 10.712C81.4094 10.392 81.9748 10.232 82.6148 10.232C83.2228 10.232 83.7668 10.3707 84.2468 10.648C84.7374 10.9253 85.1214 11.3093 85.3988 11.8C85.6868 12.28 85.8308 12.824 85.8308 13.432V19H84.6308V13.896C84.6308 13.3733 84.5348 12.9307 84.3428 12.568C84.1614 12.2053 83.9001 11.928 83.5588 11.736C83.2281 11.5333 82.8441 11.432 82.4068 11.432C81.9694 11.432 81.5801 11.5333 81.2388 11.736C80.8974 11.928 80.6308 12.2107 80.4388 12.584C80.2468 12.9467 80.1508 13.384 80.1508 13.896V19H78.9508ZM91.0986 19.192C90.2773 19.192 89.5573 18.984 88.9386 18.568C88.32 18.152 87.872 17.5867 87.5946 16.872L88.6026 16.392C88.848 16.9147 89.1893 17.3307 89.6266 17.64C90.0746 17.9493 90.5653 18.104 91.0986 18.104C91.6106 18.104 92.0426 17.9813 92.3946 17.736C92.7466 17.48 92.9226 17.1493 92.9226 16.744C92.9226 16.4453 92.8373 16.2107 92.6666 16.04C92.496 15.8587 92.2986 15.72 92.0746 15.624C91.8506 15.528 91.6533 15.4587 91.4826 15.416L90.2506 15.064C89.4613 14.84 88.8906 14.5253 88.5386 14.12C88.1866 13.7147 88.0106 13.2453 88.0106 12.712C88.0106 12.2107 88.1386 11.7733 88.3946 11.4C88.6506 11.0267 88.9973 10.7387 89.4346 10.536C89.872 10.3333 90.3573 10.232 90.8906 10.232C91.616 10.232 92.272 10.424 92.8586 10.808C93.456 11.1813 93.8773 11.704 94.1226 12.376L93.0986 12.856C92.8853 12.376 92.576 12.0027 92.1706 11.736C91.776 11.4587 91.3333 11.32 90.8426 11.32C90.3626 11.32 89.9786 11.4427 89.6906 11.688C89.4026 11.9333 89.2586 12.2427 89.2586 12.616C89.2586 12.904 89.3333 13.1333 89.4826 13.304C89.632 13.4747 89.8026 13.6027 89.9946 13.688C90.1973 13.7733 90.3733 13.8373 90.5226 13.88L91.9466 14.296C92.64 14.4987 93.1786 14.8133 93.5626 15.24C93.9573 15.6667 94.1546 16.168 94.1546 16.744C94.1546 17.2133 94.0213 17.6347 93.7546 18.008C93.4986 18.3813 93.1413 18.6747 92.6826 18.888C92.224 19.0907 91.696 19.192 91.0986 19.192Z" fill="white"/>
<path d="M105 11.5L110 16.5L115 11.5" stroke="white" stroke-width="1.5" stroke-linecap="round" stroke-linejoin="round"/>
</svg>
