<svg width="88" height="24" viewBox="0 0 88 24" fill="none" xmlns="http://www.w3.org/2000/svg">
<path d="M2.72 12.792C2.848 14.824 4.096 15.992 5.92 15.992C7.328 15.992 8.56 15.288 8.56 14.008C8.56 12.696 7.28 12.328 5.664 11.896C3.504 11.32 1.712 10.776 1.712 8.76C1.712 6.728 3.216 5.624 5.536 5.624C7.952 5.624 9.52 6.824 9.712 9.352H8.304C8.16 7.592 7.216 6.776 5.6 6.776C4.096 6.776 3.056 7.48 3.056 8.696C3.056 9.672 3.552 10.056 5.984 10.744C7.504 11.176 9.888 11.672 9.888 13.976C9.888 15.864 8.288 17.144 5.904 17.144C3.136 17.144 1.392 15.448 1.28 12.792H2.72ZM19.5399 14.04C19.3319 15.848 18.0199 17.176 15.8599 17.176C13.4599 17.176 11.9719 15.4 11.9719 13C11.9719 10.6 13.4599 8.824 15.8599 8.824C17.9239 8.824 19.2199 10.072 19.4919 11.768H18.1479C17.9239 10.728 17.2039 9.944 15.8599 9.944C14.2119 9.944 13.2519 11.24 13.2519 13C13.2519 14.76 14.2119 16.056 15.8599 16.056C17.2839 16.056 18.0359 15.192 18.2279 14.04H19.5399ZM21.3406 7.448V5.8H23.0046V7.448H21.3406ZM21.5166 17V9H22.8286V17H21.5166ZM28.8591 17.176C26.4591 17.176 25.0031 15.416 25.0031 13.048C25.0031 10.584 26.5711 8.824 28.8911 8.824C31.2111 8.824 32.5231 10.6 32.5231 13V13.272H26.3791V13.336C26.4751 14.952 27.4351 16.056 28.8271 16.056C29.7231 16.056 30.6191 15.592 31.0031 14.44H32.4591C32.0111 16.152 30.6671 17.176 28.8591 17.176ZM26.4111 12.28H31.1951C31.1631 10.936 30.3311 9.944 28.8751 9.944C27.4991 9.944 26.6511 10.84 26.4111 12.28ZM38.7681 8.824C40.7841 8.824 41.8081 10.216 41.8081 12.296V17H40.4961V12.296C40.4961 10.888 39.8081 9.976 38.6401 9.976C37.0561 9.976 36.0801 11.16 36.0801 12.776V17H34.7681V9H36.0801V10.568C36.5921 9.416 37.5361 8.824 38.7681 8.824ZM51.5399 14.04C51.3319 15.848 50.0199 17.176 47.8599 17.176C45.4599 17.176 43.9719 15.4 43.9719 13C43.9719 10.6 45.4599 8.824 47.8599 8.824C49.9239 8.824 51.2199 10.072 51.4919 11.768H50.1479C49.9239 10.728 49.2039 9.944 47.8599 9.944C46.2119 9.944 45.2519 11.24 45.2519 13C45.2519 14.76 46.2119 16.056 47.8599 16.056C49.2839 16.056 50.0359 15.192 50.2279 14.04H51.5399ZM56.7966 17.176C54.3966 17.176 52.9406 15.416 52.9406 13.048C52.9406 10.584 54.5086 8.824 56.8286 8.824C59.1486 8.824 60.4606 10.6 60.4606 13V13.272H54.3166V13.336C54.4126 14.952 55.3726 16.056 56.7646 16.056C57.6606 16.056 58.5566 15.592 58.9406 14.44H60.3966C59.9486 16.152 58.6046 17.176 56.7966 17.176ZM54.3486 12.28H59.1326C59.1006 10.936 58.2686 9.944 56.8126 9.944C55.4366 9.944 54.5886 10.84 54.3486 12.28Z" fill="white"/>
<path d="M73 9.5L78 14.5L83 9.5" stroke="white" stroke-width="1.5" stroke-linecap="round" stroke-linejoin="round"/>
</svg>
