<svg width="41" height="17" viewBox="0 0 41 17" fill="none" xmlns="http://www.w3.org/2000/svg">
<path d="M1.408 15V3.08H8.768V4.28H2.688V8.424H8.288V9.624H2.688V15H1.408ZM8.676 15L13.028 3.08H14.404L18.756 15H17.412L16.388 12.088H11.06L10.02 15H8.676ZM11.476 10.888H15.94L13.524 4.04H13.908L11.476 10.888ZM25.4771 15.192C24.6451 15.192 23.8665 15.0427 23.1411 14.744C22.4265 14.4347 21.7971 14.008 21.2531 13.464C20.7091 12.9093 20.2825 12.2587 19.9731 11.512C19.6638 10.7547 19.5091 9.928 19.5091 9.032C19.5091 8.136 19.6638 7.31467 19.9731 6.568C20.2825 5.81067 20.7091 5.16 21.2531 4.616C21.7971 4.06133 22.4265 3.63467 23.1411 3.336C23.8665 3.03733 24.6451 2.888 25.4771 2.888C26.3091 2.888 27.0825 3.04267 27.7971 3.352C28.5225 3.65067 29.1571 4.07733 29.7011 4.632C30.2451 5.176 30.6718 5.82133 30.9811 6.568C31.2905 7.31467 31.4451 8.136 31.4451 9.032C31.4451 9.928 31.2905 10.7547 30.9811 11.512C30.6718 12.2587 30.2451 12.9093 29.7011 13.464C29.1571 14.008 28.5225 14.4347 27.7971 14.744C27.0825 15.0427 26.3091 15.192 25.4771 15.192ZM25.4771 13.992C26.1705 13.992 26.7998 13.864 27.3651 13.608C27.9411 13.352 28.4371 12.9947 28.8531 12.536C29.2691 12.0773 29.5891 11.5493 29.8131 10.952C30.0478 10.3547 30.1651 9.71467 30.1651 9.032C30.1651 8.36 30.0478 7.72533 29.8131 7.128C29.5891 6.53067 29.2691 6.00267 28.8531 5.544C28.4371 5.08533 27.9411 4.728 27.3651 4.472C26.7998 4.216 26.1705 4.088 25.4771 4.088C24.7838 4.088 24.1491 4.216 23.5731 4.472C23.0078 4.728 22.5171 5.08533 22.1011 5.544C21.6851 6.00267 21.3598 6.53067 21.1251 7.128C20.9011 7.72533 20.7891 8.36 20.7891 9.032C20.7891 9.71467 20.9011 10.3547 21.1251 10.952C21.3598 11.5493 21.6851 12.0773 22.1011 12.536C22.5171 12.9947 23.0131 13.352 23.5891 13.608C24.1651 13.864 24.7945 13.992 25.4771 13.992ZM28.9171 16.44L24.6771 10.232H26.1331L30.3731 16.44H28.9171ZM36.708 15.192C35.8867 15.192 35.1667 14.984 34.548 14.568C33.9293 14.152 33.4813 13.5867 33.204 12.872L34.212 12.392C34.4573 12.9147 34.7987 13.3307 35.236 13.64C35.684 13.9493 36.1747 14.104 36.708 14.104C37.22 14.104 37.652 13.9813 38.004 13.736C38.356 13.48 38.532 13.1493 38.532 12.744C38.532 12.4453 38.4467 12.2107 38.276 12.04C38.1053 11.8587 37.908 11.72 37.684 11.624C37.46 11.528 37.2627 11.4587 37.092 11.416L35.86 11.064C35.0707 10.84 34.5 10.5253 34.148 10.12C33.796 9.71467 33.62 9.24533 33.62 8.712C33.62 8.21067 33.748 7.77333 34.004 7.4C34.26 7.02667 34.6067 6.73867 35.044 6.536C35.4813 6.33333 35.9667 6.232 36.5 6.232C37.2253 6.232 37.8813 6.424 38.468 6.808C39.0653 7.18133 39.4867 7.704 39.732 8.376L38.708 8.856C38.4947 8.376 38.1853 8.00267 37.78 7.736C37.3853 7.45867 36.9427 7.32 36.452 7.32C35.972 7.32 35.588 7.44267 35.3 7.688C35.012 7.93333 34.868 8.24267 34.868 8.616C34.868 8.904 34.9427 9.13333 35.092 9.304C35.2413 9.47467 35.412 9.60267 35.604 9.688C35.8067 9.77333 35.9827 9.83733 36.132 9.88L37.556 10.296C38.2493 10.4987 38.788 10.8133 39.172 11.24C39.5667 11.6667 39.764 12.168 39.764 12.744C39.764 13.2133 39.6307 13.6347 39.364 14.008C39.108 14.3813 38.7507 14.6747 38.292 14.888C37.8333 15.0907 37.3053 15.192 36.708 15.192Z" fill="white"/>
</svg>
