<svg width="161" height="32" viewBox="0 0 161 32" fill="none" xmlns="http://www.w3.org/2000/svg">
<g clip-path="url(#clip0_11052_4473)">
<path d="M115.318 14.4384V17.5648C115.318 18.8192 114.432 19.5136 113.299 19.5136C112.166 19.5136 111.28 18.816 111.28 17.5648V14.4384C111.28 13.184 112.166 12.4896 113.299 12.4896C114.432 12.4896 115.318 13.184 115.318 14.4384ZM129.803 12.6432H127.257V14.9504H129.803C130.595 14.9504 131.106 14.5472 131.106 13.8048C131.106 13.0432 130.592 12.6432 129.803 12.6432ZM161 0V32H95.2353V21.4176H97.2991V16.976H101.831V14.9184H97.2991V12.6432H101.831V10.5856H95.2353V0H161ZM117.398 14.4384C117.398 12.0384 115.908 10.4288 113.299 10.4288C110.69 10.4288 109.2 12.0384 109.2 14.4384V17.5648C109.2 19.9648 110.69 21.5744 113.299 21.5744C115.908 21.5744 117.398 19.9648 117.398 17.5648V14.4384ZM133.542 21.4176L130.839 16.8512C132.361 16.496 133.182 15.3824 133.182 13.7728C133.182 11.824 131.956 10.5856 129.751 10.5856H125.171V21.4176H127.251V16.96H128.525L131.148 21.4176H133.542ZM150.386 10.5824H148.306L145.62 16.1536L142.933 10.5824H140.853V21.4144H142.917V14.6048L144.795 18.5056H146.441L148.319 14.6048V21.4144H150.383L150.386 10.5824ZM0 21.4176H2.07982V16.976H6.61499V14.9184H2.07982V12.6432H6.61499V10.5856L0 10.5792V21.4176ZM16.6739 10.5792L12.7935 21.4176H14.9664L15.7431 19.2352H19.5946L20.3713 21.4176H22.5442L18.6638 10.5792H16.6739ZM16.4588 17.2672L17.6689 13.7536L18.8789 17.2672H16.4588ZM33.5211 12.4832C34.577 12.4832 35.4147 13.088 35.5239 14.2016H37.6197C37.5427 11.9264 36.0502 10.4256 33.5211 10.4256C30.9117 10.4256 29.4224 12.0192 29.4224 14.4352V17.5616C29.4224 19.9776 30.9117 21.5712 33.5211 21.5712C36.0502 21.5712 37.5427 20.0704 37.6197 17.7952H35.5239C35.4147 18.9088 34.577 19.5136 33.5211 19.5136C32.3881 19.5136 31.5022 18.816 31.5022 17.5616V14.4352C31.5022 13.1808 32.3881 12.4832 33.5211 12.4832ZM44.3118 12.64H47.3384V21.4176H49.4824V12.64H52.5091V10.5824H44.3118V12.64ZM63.3447 10.4256C60.7353 10.4256 59.246 12.0192 59.246 14.4352V17.5616C59.246 19.9776 60.7353 21.5712 63.3447 21.5712C65.9541 21.5712 67.4434 19.9776 67.4434 17.5616V14.4352C67.4466 12.0192 65.9541 10.4256 63.3447 10.4256ZM65.3635 17.5616C65.3635 18.816 64.4777 19.5136 63.3447 19.5136C62.2117 19.5136 61.3258 18.816 61.3258 17.5616V14.4352C61.3258 13.1808 62.2117 12.4832 63.3447 12.4832C64.4777 12.4832 65.3635 13.1808 65.3635 14.4352V17.5616ZM83.3598 13.7696C83.3598 11.7888 82.1658 10.5792 79.9287 10.5792H75.3486V21.4144H77.4284V16.9568H78.7026L81.3281 21.4144H83.7192L81.0167 16.848C82.5509 16.4928 83.3598 15.3792 83.3598 13.7696ZM79.9736 14.9472H77.4284V12.64H79.9736C80.7664 12.64 81.2767 13.0432 81.2767 13.8016C81.2799 14.544 80.7664 14.9472 79.9736 14.9472Z" fill="white"/>
</g>
<defs>
<clipPath id="clip0_11052_4473">
<rect width="161" height="32" fill="white"/>
</clipPath>
</defs>
</svg>
