<svg width="390" height="64" viewBox="0 0 390 64" fill="none" xmlns="http://www.w3.org/2000/svg">
<rect width="390" height="64" fill="#141414"/>
<path d="M166.229 42.048V45.956C166.229 47.524 165.136 48.392 163.739 48.392C162.341 48.392 161.249 47.52 161.249 45.956V42.048C161.249 40.48 162.341 39.612 163.739 39.612C165.136 39.612 166.229 40.48 166.229 42.048ZM184.094 39.804H180.955V42.688H184.094C185.072 42.688 185.701 42.184 185.701 41.256C185.701 40.304 185.068 39.804 184.094 39.804ZM222.571 24V64H141.46V50.772H144.005V45.22L149.595 45.22V42.648L144.005 42.648V39.804H149.595V37.232H141.46V24L222.571 24ZM168.794 42.048C168.794 39.048 166.957 37.036 163.739 37.036C160.52 37.036 158.684 39.048 158.684 42.048V45.956C158.684 48.956 160.52 50.968 163.739 50.968C166.957 50.968 168.794 48.956 168.794 45.956V42.048ZM188.706 50.772L185.372 45.064C187.249 44.62 188.262 43.228 188.262 41.216C188.262 38.78 186.75 37.232 184.03 37.232H178.382V50.772H180.947V45.2H182.518L185.752 50.772H188.706ZM209.48 37.228H206.915L203.602 44.192L200.288 37.228H197.723V50.768H200.269V42.256L202.584 47.132H204.615L206.931 42.256V50.768H209.476L209.48 37.228ZM24 50.772H26.5652V45.22H32.1587V42.648H26.5652V39.804H32.1587V37.232L24 37.224V50.772ZM44.5649 37.224L39.779 50.772H42.459L43.4169 48.044H48.1673L49.1252 50.772H51.8052L47.0193 37.224H44.5649ZM44.2997 45.584L45.7921 41.192L47.2845 45.584H44.2997ZM65.3436 39.604C66.646 39.604 67.6792 40.36 67.8138 41.752H70.3988C70.3038 38.908 68.463 37.032 65.3436 37.032C62.1253 37.032 60.2885 39.024 60.2885 42.044V45.952C60.2885 48.972 62.1253 50.964 65.3436 50.964C68.463 50.964 70.3038 49.088 70.3988 46.244H67.8138C67.6792 47.636 66.646 48.392 65.3436 48.392C63.9463 48.392 62.8537 47.52 62.8537 45.952V42.044C62.8537 40.476 63.9463 39.604 65.3436 39.604ZM78.6525 39.8H82.3854V50.772H85.0298V39.8H88.7627V37.228L78.6525 37.228V39.8ZM102.127 37.032C98.9086 37.032 97.0718 39.024 97.0718 42.044V45.952C97.0718 48.972 98.9086 50.964 102.127 50.964C105.345 50.964 107.182 48.972 107.182 45.952V42.044C107.186 39.024 105.345 37.032 102.127 37.032ZM104.617 45.952C104.617 47.52 103.524 48.392 102.127 48.392C100.73 48.392 99.637 47.52 99.637 45.952V42.044C99.637 40.476 100.73 39.604 102.127 39.604C103.524 39.604 104.617 40.476 104.617 42.044V45.952ZM126.813 41.212C126.813 38.736 125.34 37.224 122.581 37.224H116.932V50.768H119.497V45.196H121.069L124.307 50.768H127.256L123.923 45.06C125.815 44.616 126.813 43.224 126.813 41.212ZM122.636 42.684H119.497V39.8H122.636C123.614 39.8 124.244 40.304 124.244 41.252C124.248 42.18 123.614 42.684 122.636 42.684Z" fill="white"/>
</svg>
