<svg width="22" height="22" viewBox="0 0 22 22" fill="none" xmlns="http://www.w3.org/2000/svg">
<path d="M11.0004 12.5765C13.1772 12.5765 14.9418 10.8119 14.9418 8.63517C14.9418 6.45842 13.1772 4.69381 11.0004 4.69381C8.82366 4.69381 7.05905 6.45842 7.05905 8.63517C7.05905 10.8119 8.82366 12.5765 11.0004 12.5765Z" stroke="black" stroke-width="1.5" stroke-linecap="round" stroke-linejoin="round"/>
<path d="M4.26776 18.7251C4.97128 17.5702 5.96004 16.6158 7.13898 15.9537C8.31792 15.2913 9.64739 14.9435 10.9996 14.9435C12.3518 14.9435 13.6813 15.2913 14.8602 15.9537C16.0392 16.6158 17.0279 17.5702 17.7315 18.7251" stroke="black" stroke-width="1.5" stroke-linecap="round" stroke-linejoin="round"/>
<path d="M11 21.2475C16.6596 21.2475 21.2475 16.6596 21.2475 11C21.2475 5.34043 16.6596 0.752442 11 0.752442C5.34043 0.752442 0.752442 5.34043 0.752442 11C0.752442 16.6596 5.34043 21.2475 11 21.2475Z" stroke="black" stroke-width="1.5" stroke-linecap="round" stroke-linejoin="round"/>
</svg>
