<svg width="22" height="22" viewBox="0 0 22 22" fill="none" xmlns="http://www.w3.org/2000/svg">
<path d="M11 12.5765C13.1767 12.5765 14.9413 10.8119 14.9413 8.63517C14.9413 6.45842 13.1767 4.69381 11 4.69381C8.82323 4.69381 7.05862 6.45842 7.05862 8.63517C7.05862 10.8119 8.82323 12.5765 11 12.5765Z" stroke="#141414" stroke-width="1.5" stroke-linecap="round" stroke-linejoin="round"/>
<path d="M4.26813 18.7251C4.97164 17.5702 5.96041 16.6158 7.13935 15.9537C8.31829 15.2913 9.64776 14.9435 11 14.9435C12.3522 14.9435 13.6817 15.2913 14.8606 15.9537C16.0396 16.6158 17.0282 17.5702 17.7319 18.7251" stroke="#141414" stroke-width="1.5" stroke-linecap="round" stroke-linejoin="round"/>
<path d="M11 21.2475C16.6596 21.2475 21.2475 16.6596 21.2475 11C21.2475 5.34043 16.6596 0.752442 11 0.752442C5.34043 0.752442 0.752442 5.34043 0.752442 11C0.752442 16.6596 5.34043 21.2475 11 21.2475Z" stroke="#141414" stroke-width="1.5" stroke-linecap="round" stroke-linejoin="round"/>
</svg>
