<svg width="64" height="64" viewBox="0 0 64 64" fill="none" xmlns="http://www.w3.org/2000/svg">
<path d="M31.4142 35.958C31.4142 35.958 32.4511 28.623 20.8535 28.623" stroke="#141414" stroke-width="1.5" stroke-miterlimit="10"/>
<path d="M31.5293 36.5636C31.5293 36.5636 33.2574 33.4914 41.5907 32.7617" stroke="#141414" stroke-width="1.5" stroke-miterlimit="10"/>
<path d="M35.2154 17.9473C30.6839 26.6262 31.2369 29.5218 31.6055 42.7937" stroke="#141414" stroke-width="1.5"/>
<path d="M39.3947 36.8979L35.2832 33.9568L38.2175 29.8405C38.2177 29.8403 38.2178 29.8402 38.2178 29.8401C39.1129 28.5868 40.0035 28.0268 40.9694 27.8962C41.9676 27.7613 43.1651 28.0666 44.7036 28.8153L49.7214 31.5485L45.8607 35.7642C44.6371 37.0034 43.6049 37.6779 42.6238 37.8668C41.6732 38.0497 40.6537 37.7968 39.3951 36.8982C39.395 36.8981 39.3948 36.898 39.3947 36.8979Z" stroke="#141414" stroke-width="1.5" stroke-miterlimit="10"/>
<path d="M25.1661 24.9368L27.9614 29.9562L22.9466 32.7597C22.9464 32.7598 22.9463 32.7598 22.9461 32.7599C21.4253 33.6084 20.2321 33.7565 19.1649 33.4177C18.0667 33.069 16.9869 32.1709 15.7819 30.6687L11.9473 25.4126L17.9732 22.9526C19.8142 22.2805 21.2023 22.0852 22.3099 22.3699C23.3873 22.6469 24.3141 23.41 25.1659 24.9364C25.1659 24.9365 25.166 24.9366 25.1661 24.9368Z" stroke="#141414" stroke-width="1.5" stroke-miterlimit="10"/>
<path d="M37.5466 23.0512L32.2095 24.798L30.454 19.4637C30.4539 19.4636 30.4538 19.4634 30.4538 19.4633C29.9226 17.8444 30.0036 16.6732 30.5266 15.714C31.0652 14.7263 32.1279 13.8571 33.7965 12.9794L39.5526 10.2803L40.7897 16.5188C41.0921 18.4137 41.0201 19.7819 40.5411 20.7904C40.0755 21.7708 39.1719 22.5177 37.5471 23.0511C37.5469 23.0511 37.5468 23.0512 37.5466 23.0512Z" stroke="#141414" stroke-width="1.5" stroke-miterlimit="10"/>
<path d="M12.6807 53.9853C16.4151 47.6382 23.6548 43.3779 32 43.3779C40.3451 43.3779 47.5848 47.6382 51.3192 53.9853H12.6807Z" stroke="#141414" stroke-width="1.5"/>
</svg>
