<svg width="64" height="64" viewBox="0 0 64 64" fill="none" xmlns="http://www.w3.org/2000/svg">
<path d="M14.3296 38.2304C13.6169 37.543 13.2637 36.4835 13.5538 35.3672C13.8124 34.396 14.6007 33.6077 15.5782 33.3554C16.6882 33.0653 17.7414 33.4185 18.4352 34.1311L26.8608 42.6892V56.507H15.8746V49.3238L7.64453 39.4854V24.6901C7.64453 23.0883 8.94367 21.7891 10.5456 21.7891C12.1475 21.7891 13.4529 23.0883 13.4529 24.6901V36.1555C13.4529 36.9691 13.7872 37.707 14.3296 38.2304ZM14.3296 38.2304L14.3737 38.2746L19.1162 43.0172" stroke="#F1F1EA" stroke-width="1.5" stroke-miterlimit="10"/>
<path d="M49.7221 38.2304C50.4348 37.543 50.788 36.4835 50.4978 35.3672C50.2393 34.396 49.4509 33.6077 48.4734 33.3554C47.3635 33.0653 46.3103 33.4185 45.6165 34.1311L37.1909 42.6892V56.507H48.177V49.3238L56.4072 39.4854V24.6901C56.4072 23.0883 55.108 21.7891 53.5061 21.7891C51.9042 21.7891 50.5987 23.0883 50.5987 24.6901V36.1555C50.5987 36.9691 50.2645 37.707 49.7221 38.2304ZM49.7221 38.2304L49.678 38.2746L44.9354 43.0172" stroke="#F1F1EA" stroke-width="1.5" stroke-miterlimit="10"/>
<path d="M37.363 18.3705C39.9649 18.3705 42.0741 16.2612 42.0741 13.6594C42.0741 11.0575 39.9649 8.94824 37.363 8.94824C34.7611 8.94824 32.6519 11.0575 32.6519 13.6594C32.6519 16.2612 34.7611 18.3705 37.363 18.3705Z" stroke="#F1F1EA" stroke-width="1.5" stroke-miterlimit="10"/>
<path d="M37.363 15.7631C38.5248 15.7631 39.4667 14.8212 39.4667 13.6594C39.4667 12.4975 38.5248 11.5557 37.363 11.5557C36.2011 11.5557 35.2593 12.4975 35.2593 13.6594C35.2593 14.8212 36.2011 15.7631 37.363 15.7631Z" stroke="#F1F1EA" stroke-width="1.5" stroke-miterlimit="10"/>
<path d="M27.5557 34.0361C30.9297 37.4102 36.4101 37.4102 39.7842 34.0361C43.1582 30.6621 43.1582 25.1817 39.7842 21.8076L27.5557 34.0361Z" stroke="#F1F1EA" stroke-width="1.5" stroke-miterlimit="10"/>
<path d="M33.5405 31.4375V33.424" stroke="#F1F1EA" stroke-width="1.5" stroke-miterlimit="10"/>
<path d="M39.1536 27.792H37.167" stroke="#F1F1EA" stroke-width="1.5" stroke-miterlimit="10"/>
<path d="M35.918 30.1768L37.3244 31.5768" stroke="#F1F1EA" stroke-width="1.5" stroke-miterlimit="10"/>
<path d="M28.7489 27.7889L23.1612 26.504C19.8965 25.7533 18.9912 23.7446 19.2036 20.1827L19.892 13.6299L26.0873 15.8729C29.4524 17.234 30.7957 18.9294 30.045 22.1942L28.7601 27.7818L28.7489 27.7889Z" stroke="#F1F1EA" stroke-width="1.5" stroke-miterlimit="10"/>
<path d="M28.7491 27.7883L24.5449 21.0732" stroke="#F1F1EA" stroke-width="1.5" stroke-miterlimit="10"/>
</svg>
