<svg width="32" height="32" viewBox="0 0 32 32" fill="none" xmlns="http://www.w3.org/2000/svg">
<path d="M22 28C23.1046 28 24 27.1046 24 26C24 24.8954 23.1046 24 22 24C20.8954 24 20 24.8954 20 26C20 27.1046 20.8954 28 22 28Z" stroke="white" stroke-width="1.5" stroke-linecap="round" stroke-linejoin="round"/>
<path d="M11.333 28C12.4376 28 13.333 27.1046 13.333 26C13.333 24.8954 12.4376 24 11.333 24C10.2284 24 9.33301 24.8954 9.33301 26C9.33301 27.1046 10.2284 28 11.333 28Z" stroke="white" stroke-width="1.5" stroke-linecap="round" stroke-linejoin="round"/>
<path d="M4.94542 7.2H25.2321C27.069 7.2 28.3957 8.89409 27.8925 10.5971L25.6865 18.0638C25.348 19.2097 24.262 20 23.0261 20H10.8155C9.57959 20 8.49362 19.2097 8.15508 18.0638L4.94542 7.2ZM4.94542 7.2L4 4" stroke="white" stroke-width="1.5" stroke-linecap="round" stroke-linejoin="round"/>
</svg>
