<svg width="64" height="64" viewBox="0 0 64 64" fill="none" xmlns="http://www.w3.org/2000/svg">
<path d="M14.3296 38.2304C13.6169 37.543 13.2637 36.4835 13.5538 35.3672C13.8124 34.396 14.6007 33.6077 15.5782 33.3554C16.6882 33.0653 17.7414 33.4185 18.4352 34.1311L26.8608 42.6892V56.507H15.8746V49.3238L7.64453 39.4854V24.6901C7.64453 23.0883 8.94367 21.7891 10.5456 21.7891C12.1475 21.7891 13.4529 23.0883 13.4529 24.6901V36.1555C13.4529 36.9691 13.7872 37.707 14.3296 38.2304ZM14.3296 38.2304L14.3737 38.2746L19.1162 43.0172" stroke="#141414" stroke-width="1.5" stroke-miterlimit="10"/>
<path d="M49.7226 38.2304C50.4353 37.543 50.7884 36.4835 50.4983 35.3672C50.2398 34.396 49.4514 33.6077 48.4739 33.3554C47.364 33.0653 46.3108 33.4185 45.617 34.1311L37.1914 42.6892V56.507H48.1775V49.3238L56.4076 39.4854V24.6901C56.4076 23.0883 55.1084 21.7891 53.5066 21.7891C51.9047 21.7891 50.5992 23.0883 50.5992 24.6901V36.1555C50.5992 36.9691 50.265 37.707 49.7226 38.2304ZM49.7226 38.2304L49.6785 38.2746L44.9359 43.0172" stroke="#141414" stroke-width="1.5" stroke-miterlimit="10"/>
<path d="M37.3625 18.3705C39.9644 18.3705 42.0736 16.2612 42.0736 13.6594C42.0736 11.0575 39.9644 8.94824 37.3625 8.94824C34.7606 8.94824 32.6514 11.0575 32.6514 13.6594C32.6514 16.2612 34.7606 18.3705 37.3625 18.3705Z" stroke="#141414" stroke-width="1.5" stroke-miterlimit="10"/>
<path d="M37.3625 15.7631C38.5243 15.7631 39.4662 14.8212 39.4662 13.6594C39.4662 12.4975 38.5243 11.5557 37.3625 11.5557C36.2007 11.5557 35.2588 12.4975 35.2588 13.6594C35.2588 14.8212 36.2007 15.7631 37.3625 15.7631Z" stroke="#141414" stroke-width="1.5" stroke-miterlimit="10"/>
<path d="M27.5557 34.0361C30.9297 37.4102 36.4101 37.4102 39.7842 34.0361C43.1582 30.6621 43.1582 25.1817 39.7842 21.8076L27.5557 34.0361Z" stroke="#141414" stroke-width="1.5" stroke-miterlimit="10"/>
<path d="M33.54 31.4375V33.424" stroke="#141414" stroke-width="1.5" stroke-miterlimit="10"/>
<path d="M39.1536 27.792H37.167" stroke="#141414" stroke-width="1.5" stroke-miterlimit="10"/>
<path d="M35.918 30.1768L37.3244 31.5768" stroke="#141414" stroke-width="1.5" stroke-miterlimit="10"/>
<path d="M28.7493 27.7889L23.1617 26.504C19.897 25.7533 18.9917 23.7446 19.2041 20.1827L19.8925 13.6299L26.0878 15.8729C29.4529 17.234 30.7962 18.9294 30.0455 22.1942L28.7606 27.7818L28.7493 27.7889Z" stroke="#141414" stroke-width="1.5" stroke-miterlimit="10"/>
<path d="M28.7491 27.7883L24.5449 21.0732" stroke="#141414" stroke-width="1.5" stroke-miterlimit="10"/>
</svg>
