<svg width="64" height="64" viewBox="0 0 64 64" fill="none" xmlns="http://www.w3.org/2000/svg">
<path d="M33.9027 41.9179L38.0933 31.7969C38.0344 31.8263 37.9756 31.8499 37.9108 31.8793C36.9633 32.2679 35.8744 32.3032 34.8503 31.8793C32.8138 31.0374 31.8486 28.7 32.6961 26.6569C33.3906 24.979 35.0916 24.0251 36.8102 24.2135C36.4453 23.2892 36.4336 22.2353 36.8455 21.2462C37.6931 19.2031 40.0238 18.2375 42.0662 19.0853C42.8549 19.415 43.4788 19.9626 43.9025 20.6338C44.8737 18.8675 47.0279 18.0786 48.9348 18.8675C50.8418 19.6565 51.8718 21.8879 51.1714 23.8721C52.0366 23.5953 53.0019 23.6189 53.9024 23.9957C55.9447 24.8435 56.91 27.175 56.0625 29.2181C55.6564 30.2072 54.8971 30.9432 53.9907 31.3377C55.3385 32.421 55.8682 34.2991 55.1737 35.9772C54.3262 38.0202 51.9955 38.9858 49.9589 38.1438C48.8701 37.6963 48.0932 36.8191 47.7224 35.7947L45.1856 41.9237" stroke="#141414" stroke-width="1.5" stroke-miterlimit="10"/>
<path d="M43.0846 33.3623L39.4531 42.1291" stroke="#141414" stroke-width="1.5" stroke-miterlimit="10"/>
<path d="M41.6836 30.8252L43.0079 33.6572L45.8742 32.5621" stroke="#141414" stroke-width="1.5" stroke-miterlimit="10"/>
<path d="M39.7891 35.4062L41.1134 38.2382L43.9738 37.1431" stroke="#141414" stroke-width="1.5" stroke-miterlimit="10"/>
<path d="M13.2431 31.419L12.1418 30.0627C12.1418 30.0627 12.1418 30.12 12.1355 30.1455C12.0909 30.5721 11.8873 30.9797 11.5244 31.2726C10.8115 31.852 9.75481 31.7438 9.17555 31.0242C8.69815 30.4321 8.68541 29.617 9.09916 29.0248C8.68541 28.9739 8.29709 28.7701 8.01703 28.4198C7.43777 27.7003 7.54598 26.6497 8.25892 26.0702C8.53898 25.8473 8.86361 25.7264 9.19463 25.7009C8.73632 24.9941 8.87635 24.0389 9.54473 23.4977C10.2131 22.9564 11.2379 23.0201 11.8299 23.6696C11.9 23.2939 12.1037 22.9437 12.4155 22.689C13.1349 22.1096 14.1851 22.2178 14.7644 22.931C15.0445 23.2748 15.1655 23.7014 15.1337 24.1154C15.802 23.8352 16.5977 24.0135 17.0751 24.6057C17.6544 25.3252 17.5462 26.3759 16.8332 26.9553C16.4513 27.2673 15.9739 27.382 15.5219 27.3119L16.5722 28.6109" stroke="#141414" stroke-width="1.5" stroke-miterlimit="10"/>
<path d="M20.7229 41.8622C19.7681 41.1426 18.8133 40.4295 17.8521 39.7099C17.5338 39.468 17.2092 39.226 16.8909 38.9904C15.7833 38.1626 14.663 37.3157 13.8609 36.1887C12.1231 33.769 12.8679 30.3687 15.5923 29.0124C16.8782 28.3756 18.4759 28.3692 19.7363 29.0506C19.8508 29.1143 19.959 29.1779 20.0609 29.2479C21.4486 30.1585 22.2506 31.7695 22.9635 33.285C24.3067 36.1186 25.6498 38.9522 26.9865 41.7858" stroke="#141414" stroke-width="1.5" stroke-miterlimit="10"/>
<path d="M20.958 37.4561L17.9854 39.8694" stroke="#141414" stroke-width="1.5" stroke-miterlimit="10"/>
<path d="M22.3393 32.2344L19.373 34.6413" stroke="#141414" stroke-width="1.5" stroke-miterlimit="10"/>
<path d="M27.4761 22.5361L25.7002 6.81445C30.4806 9.48882 33.4211 17.2645 34.7897 24.2498" stroke="#141414" stroke-width="1.5" stroke-miterlimit="10"/>
<path d="M30.8182 41.8624C30.8182 41.8624 31.633 19.9005 20.5762 15.2012L23.5043 34.4123" stroke="#141414" stroke-width="1.5" stroke-miterlimit="10"/>
<path d="M34.1025 21.4731C35.9294 15.5895 38.953 10.1834 43.9563 8.08203L41.7229 18.7392" stroke="#141414" stroke-width="1.5" stroke-miterlimit="10"/>
<path d="M54.4176 41.9004H9.54102V57.1763H54.4176V41.9004Z" stroke="#141414" stroke-width="1.5" stroke-miterlimit="10"/>
<path d="M9.54102 48.1914H54.4176" stroke="#141414" stroke-width="1.5" stroke-miterlimit="10"/>
</svg>
