<svg width="57" height="36" viewBox="0 0 57 36" fill="none" xmlns="http://www.w3.org/2000/svg">
<path opacity="0.07" d="M52.5 0H4.5C1.95 0 0 1.95 0 4.5V31.5C0 34.05 2.1 36 4.5 36H52.5C55.05 36 57 34.05 57 31.5V4.5C57 1.95 54.9 0 52.5 0Z" fill="#141414"/>
<path d="M52.5 1.5C54.15 1.5 55.5 2.85 55.5 4.5V31.5C55.5 33.15 54.15 34.5 52.5 34.5H4.5C2.85 34.5 1.5 33.15 1.5 31.5V4.5C1.5 2.85 2.85 1.5 4.5 1.5H52.5Z" fill="white"/>
<path d="M5.355 10.7399H3V18.9899H5.355C6.6 18.9899 7.5 18.6899 8.295 18.0449C9.24 17.2649 9.795 16.0949 9.795 14.8799C9.78 12.4349 7.965 10.7399 5.355 10.7399ZM7.245 16.9499C6.735 17.3999 6.09 17.6099 5.04 17.6099H4.605V12.1499H5.04C6.075 12.1499 6.705 12.3299 7.245 12.8099C7.8 13.3049 8.13 14.0699 8.13 14.8649C8.13 15.6599 7.8 16.4549 7.245 16.9499ZM10.53 10.7399H12.135V18.9899H10.53V10.7399ZM16.065 13.9049C15.105 13.5449 14.82 13.3049 14.82 12.8699C14.82 12.3449 15.33 11.9549 16.02 11.9549C16.5 11.9549 16.905 12.1499 17.31 12.6299L18.15 11.5349C17.46 10.9349 16.635 10.6199 15.72 10.6199C14.265 10.6199 13.14 11.6399 13.14 12.9899C13.14 14.1299 13.665 14.7149 15.165 15.2549C15.795 15.4799 16.11 15.6299 16.275 15.7199C16.59 15.9299 16.755 16.2299 16.755 16.5749C16.755 17.2499 16.23 17.7449 15.51 17.7449C14.745 17.7449 14.13 17.3549 13.755 16.6499L12.72 17.6549C13.455 18.7499 14.355 19.2299 15.57 19.2299C17.235 19.2299 18.42 18.1199 18.42 16.5149C18.45 15.1799 17.895 14.5799 16.065 13.9049ZM18.945 14.8799C18.945 17.3099 20.85 19.1849 23.295 19.1849C23.985 19.1849 24.585 19.0499 25.305 18.7049V16.8149C24.66 17.4599 24.09 17.7149 23.37 17.7149C21.75 17.7149 20.595 16.5449 20.595 14.8649C20.595 13.2749 21.78 12.0299 23.295 12.0299C24.06 12.0299 24.645 12.2999 25.305 12.9599V11.0699C24.6 10.7099 24.015 10.5599 23.325 10.5599C20.91 10.5599 18.945 12.4799 18.945 14.8799ZM38.085 16.2899L35.88 10.7399H34.125L37.62 19.1999H38.49L42.045 10.7399H40.305L38.085 16.2899ZM42.78 18.9899H47.34V17.5949H44.385V15.3749H47.235V13.9799H44.385V12.1499H47.34V10.7399H42.78V18.9899ZM53.715 13.1849C53.715 11.6399 52.65 10.7549 50.79 10.7549H48.405V19.0049H50.01V15.6899H50.22L52.44 19.0049H54.42L51.825 15.5249C53.04 15.2699 53.715 14.4449 53.715 13.1849ZM50.475 14.5499H50.01V12.0449H50.505C51.51 12.0449 52.05 12.4649 52.05 13.2749C52.05 14.0999 51.51 14.5499 50.475 14.5499Z" fill="#141414"/>
<path d="M30.2402 19.2901C31.4063 19.2901 32.5245 18.8269 33.349 18.0024C34.1735 17.1779 34.6367 16.0596 34.6367 14.8936C34.6367 13.7275 34.1735 12.6093 33.349 11.7848C32.5245 10.9603 31.4063 10.4971 30.2402 10.4971C29.0742 10.4971 27.956 10.9603 27.1315 11.7848C26.3069 12.6093 25.8438 13.7275 25.8438 14.8936C25.8438 16.0596 26.3069 17.1779 27.1315 18.0024C27.956 18.8269 29.0742 19.2901 30.2402 19.2901Z" fill="url(#paint0_linear_231_1369)"/>
<path opacity="0.65" d="M30.2402 19.2901C31.4063 19.2901 32.5245 18.8269 33.349 18.0024C34.1735 17.1779 34.6367 16.0596 34.6367 14.8936C34.6367 13.7275 34.1735 12.6093 33.349 11.7848C32.5245 10.9603 31.4063 10.4971 30.2402 10.4971C29.0742 10.4971 27.956 10.9603 27.1315 11.7848C26.3069 12.6093 25.8438 13.7275 25.8438 14.8936C25.8438 16.0596 26.3069 17.1779 27.1315 18.0024C27.956 18.8269 29.0742 19.2901 30.2402 19.2901Z" fill="url(#paint1_linear_231_1369)"/>
<path d="M54.8547 11.2592C54.8547 11.1092 54.7497 11.0342 54.5847 11.0342H54.3447V11.7542H54.5247V11.4692L54.7347 11.7542H54.9447L54.7047 11.4542C54.7947 11.4392 54.8547 11.3642 54.8547 11.2592ZM54.5547 11.3642H54.5247V11.1692H54.5547C54.6447 11.1692 54.6897 11.1992 54.6897 11.2592C54.6897 11.3342 54.6447 11.3642 54.5547 11.3642Z" fill="#141414"/>
<path d="M54.615 10.764C54.27 10.764 53.985 11.049 53.985 11.394C53.985 11.739 54.27 12.024 54.615 12.024C54.96 12.024 55.245 11.739 55.245 11.394C55.245 11.049 54.96 10.764 54.615 10.764ZM54.615 11.919C54.345 11.919 54.105 11.694 54.105 11.394C54.105 11.109 54.33 10.869 54.615 10.869C54.885 10.869 55.11 11.109 55.11 11.394C55.11 11.679 54.885 11.919 54.615 11.919Z" fill="#141414"/>
<path d="M55.4999 19.4761C55.4999 19.4761 40.6349 29.8096 13.4639 34.5001H52.4984C53.2899 34.5001 54.0494 34.1873 54.6113 33.6299C55.1732 33.0725 55.4921 32.3156 55.4984 31.5241L55.5344 26.9941L55.4999 19.4761Z" fill="#F48120"/>
<defs>
<linearGradient id="paint0_linear_231_1369" x1="32.4857" y1="18.4126" x2="29.4482" y2="13.6561" gradientUnits="userSpaceOnUse">
<stop stop-color="#F89F20"/>
<stop offset="0.25" stop-color="#F79A20"/>
<stop offset="0.533" stop-color="#F68D20"/>
<stop offset="0.62" stop-color="#F58720"/>
<stop offset="0.723" stop-color="#F48120"/>
<stop offset="1" stop-color="#F37521"/>
</linearGradient>
<linearGradient id="paint1_linear_231_1369" x1="32.0072" y1="18.3481" x2="27.5672" y2="9.66907" gradientUnits="userSpaceOnUse">
<stop stop-color="#F58720"/>
<stop offset="0.359" stop-color="#E16F27"/>
<stop offset="0.703" stop-color="#D4602C"/>
<stop offset="0.982" stop-color="#D05B2E"/>
</linearGradient>
</defs>
</svg>
