<svg width="57" height="36" viewBox="0 0 57 36" fill="none" xmlns="http://www.w3.org/2000/svg">
<path opacity="0.07" d="M52.5 0H4.5C1.95 0 0 1.95 0 4.5V31.5C0 34.05 2.1 36 4.5 36H52.5C55.05 36 57 34.05 57 31.5V4.5C57 1.95 54.9 0 52.5 0Z" fill="#141414"/>
<path d="M52.5 1.5C54.15 1.5 55.5 2.85 55.5 4.5V31.5C55.5 33.15 54.15 34.5 52.5 34.5H4.5C2.85 34.5 1.5 33.15 1.5 31.5V4.5C1.5 2.85 2.85 1.5 4.5 1.5H52.5Z" fill="#006FCF"/>
<path d="M33.0179 29.904V17.2725L55.4999 17.292V20.781L52.9019 23.559L55.4999 26.3595V29.922H51.3509L49.1459 27.489L46.9559 29.931L33.0179 29.901V29.904Z" fill="white"/>
<path d="M34.5194 28.5181V18.6631H42.8774V20.9326H37.2254V22.4746H42.7424V24.7066H37.2254V26.2216H42.8774V28.5181H34.5194Z" fill="#006FCF"/>
<path d="M42.8355 28.518L47.46 23.5845L42.8355 18.6615H46.4145L49.2405 21.786L52.0755 18.663H55.5V18.7395L50.9745 23.5845L55.5 28.38V28.5195H52.0395L49.164 25.365L46.317 28.521H42.8355V28.518Z" fill="#006FCF"/>
<path d="M34.065 6.05994H39.486L41.3895 10.3814V6.05994H48.0795L49.2345 9.29844L50.391 6.05994H55.5V18.6914H28.5L34.065 6.05994Z" fill="white"/>
<path d="M35.0928 7.43262L30.7188 17.2816H33.7188L34.5437 15.3091H39.0138L39.8387 17.2816H42.9137L38.5577 7.43262H35.0928ZM35.4678 13.0981L36.7803 9.96312L38.0897 13.0981H35.4678Z" fill="#006FCF"/>
<path d="M42.8716 17.2799V7.42944L47.0881 7.44444L49.2601 13.4999L51.4441 7.43094H55.5001V17.2784L52.8901 17.3024V10.5374L50.4241 17.2784H48.0391L45.5251 10.5149V17.2799H42.8731H42.8716Z" fill="#006FCF"/>
</svg>
