<svg width="57" height="36" viewBox="0 0 57 36" fill="none" xmlns="http://www.w3.org/2000/svg">
<path opacity="0.07" d="M52.5 0H4.5C1.95 0 0 1.95 0 4.5V31.5C0 34.05 2.1 36 4.5 36H52.5C55.05 36 57 34.05 57 31.5V4.5C57 1.95 54.9 0 52.5 0Z" fill="#141414"/>
<path d="M52.5 1.5C54.15 1.5 55.5 2.85 55.5 4.5V31.5C55.5 33.15 54.15 34.5 52.5 34.5H4.5C2.85 34.5 1.5 33.15 1.5 31.5V4.5C1.5 2.85 2.85 1.5 4.5 1.5H52.5Z" fill="white"/>
<path d="M35.85 12.45C36.15 10.95 35.85 9.9 34.95 9C34.05 7.95 32.4 7.5 30.3 7.5H24.15C23.7 7.5 23.4 7.8 23.25 8.25L21 23.4C21 23.7 21.15 24 21.45 24H25.5L26.1 18.9L28.8 15.6L35.85 12.45Z" fill="#003087"/>
<path d="M35.85 12.45L35.55 12.75C34.8 16.95 32.25 18.45 28.65 18.45H27C26.55 18.45 26.25 18.75 26.1 19.2L25.2 25.05L24.9 26.55C24.9 26.85 25.05 27.15 25.35 27.15H28.5C28.95 27.15 29.25 26.85 29.25 26.55V26.4L29.85 22.8V22.65C29.85 22.35 30.3 22.05 30.6 22.05H31.05C34.2 22.05 36.6 20.85 37.2 17.25C37.5 15.75 37.35 14.55 36.6 13.65C36.45 12.9 36.15 12.6 35.85 12.45Z" fill="#3086C8"/>
<path d="M34.95 12.15C34.8 12 34.65 12 34.5 12C34.35 12 34.2 12 34.05 11.85C33.6 11.7 33 11.7 32.4 11.7H27.9C27.75 11.7 27.6 11.7 27.6 11.85C27.3 12 27.15 12.15 27.15 12.45L26.1 19.05V19.2C26.1 18.75 26.55 18.45 27 18.45H28.95C32.7 18.45 35.1 16.95 35.85 12.75V12.45C35.7 12.3 35.4 12.15 35.1 12.15H34.95Z" fill="#012169"/>
</svg>
