<svg width="130" height="18" viewBox="0 0 130 18" fill="none" xmlns="http://www.w3.org/2000/svg">
<path d="M2.77688 6.04335H8.82771V8.81356H2.77688V14.7927H0V0.209778H8.82771V2.97998H2.77688V6.04335Z" fill="#141414"/>
<path d="M21.0156 11.8553L19.9784 14.7927H17.0783L22.2582 0.209778H24.9099L30.09 14.7927H27.1897L26.1545 11.8553H21.0156ZM23.5851 4.48117L21.9686 9.20313H25.2015L23.5851 4.48117Z" fill="#141414"/>
<path d="M50.2052 9.91609C50.1014 12.9794 48.1111 15 44.7257 15C41.2443 15 39.256 12.8535 39.256 9.60327V5.39482C39.2639 2.14651 41.2522 0 44.7336 0C48.1111 0 50.1014 2.0206 50.2129 5.08396H47.4145C47.2696 3.58278 46.1503 2.77021 44.7413 2.77021C43.2286 2.77021 42.0487 3.7087 42.0487 5.39482V9.60327C42.0487 11.2914 43.2228 12.2298 44.7413 12.2298C46.1503 12.2298 47.2696 11.4173 47.4145 9.91609H50.2052Z" fill="#141414"/>
<path d="M66.0319 2.98017V14.785H63.1729V2.98017H59.1318V0.209961H70.0729V2.98017H66.0319Z" fill="#141414"/>
<path d="M90.0144 9.60327C90.0144 12.8535 88.0242 15 84.5349 15C81.0458 15 79.0654 12.8535 79.0654 9.60327V5.39482C79.0654 2.14651 81.0555 0 84.5349 0C88.0143 0 90.0144 2.14651 90.0144 5.39482V9.60327ZM87.2296 5.39482C87.2296 3.7087 86.0555 2.77021 84.5349 2.77021C83.0145 2.77021 81.8423 3.7087 81.8423 5.39482V9.60327C81.8423 11.2914 83.0165 12.2298 84.5349 12.2298C86.0535 12.2298 87.2296 11.2914 87.2296 9.60327V5.39482Z" fill="#141414"/>
<path d="M103.329 8.79211V14.7929H100.56V0.209961H106.673C109.657 0.209961 111.252 1.83509 111.252 4.50103C111.252 6.66526 110.174 8.16841 108.121 8.64651L111.726 14.7929H108.536L105.033 8.79211H103.329ZM106.728 2.98017H103.329V6.08486H106.728C107.785 6.08486 108.468 5.5438 108.468 4.54235C108.468 3.54089 107.792 2.98017 106.736 2.98017H106.728Z" fill="#141414"/>
<path d="M130 15.499V17.9997H120.468V15.499H130Z" fill="#141414"/>
</svg>
