<svg width="18" height="18" viewBox="0 0 18 18" fill="none" xmlns="http://www.w3.org/2000/svg">
<g clip-path="url(#clip0_231_829)">
<path fill-rule="evenodd" clip-rule="evenodd" d="M0 2.25H18V15.75H0V2.25Z" fill="#F7FCFF"/>
<path fill-rule="evenodd" clip-rule="evenodd" d="M0 10.4996V11.6246H18V10.4996H0ZM0 12.5629V13.6879H18V12.5629H0ZM0 6.37537V7.50037H18V6.37537H0ZM0 14.625V15.75H18V14.625H0ZM0 8.4375V9.5625H18V8.4375H0ZM0 2.25V3.375H18V2.25H0ZM0 4.31269V5.43769H18V4.31269H0Z" fill="#E31D1C"/>
<path d="M0 2.25H11.25V9.5625H0V2.25Z" fill="#2E42A5"/>
<path fill-rule="evenodd" clip-rule="evenodd" d="M0.968641 3.90319L0.560266 4.1895L0.698079 3.67988L0.335266 3.357H0.809453L0.968078 2.94131L1.15427 3.35756H1.55814L1.24089 3.67988L1.36352 4.1895L0.968641 3.90319ZM3.21864 3.90319L2.81027 4.1895L2.94808 3.67988L2.58527 3.357H3.05945L3.21808 2.94131L3.40427 3.35756H3.80814L3.49089 3.67988L3.61352 4.1895L3.21864 3.90319ZM5.06027 4.1895L5.46864 3.90263L5.86351 4.1895L5.74089 3.67988L6.05814 3.357H5.65427L5.46808 2.94131L5.30945 3.35756H4.83527L5.19808 3.67988L5.06027 4.1895ZM7.71864 3.90263L7.31027 4.1895L7.44808 3.67988L7.08527 3.357H7.55889L7.71808 2.94131L7.90426 3.35756H8.30814L7.99089 3.67988L8.11351 4.1895L7.71864 3.90263ZM0.560266 6.44006L0.968641 6.15319L1.36352 6.44006L1.24089 5.93044L1.55814 5.60756H1.15427L0.968078 5.19188L0.809453 5.60813H0.335266L0.698079 5.93044L0.560266 6.44006ZM3.21864 6.15319L2.81027 6.44006L2.94808 5.93044L2.58527 5.60756H3.05945L3.21808 5.19188L3.40427 5.60813H3.80814L3.49089 5.93044L3.61352 6.44006L3.21864 6.15319ZM5.06027 6.44006L5.46864 6.15319L5.86351 6.44006L5.74089 5.93044L6.05814 5.60756H5.65427L5.46808 5.19188L5.30945 5.60813H4.83527L5.19808 5.93044L5.06027 6.44006ZM7.71864 6.15319L7.31027 6.44006L7.44808 5.93044L7.08527 5.60756H7.55889L7.71808 5.19188L7.90426 5.60813H8.30814L7.99089 5.93044L8.11351 6.44006L7.71864 6.15319ZM0.560266 8.69006L0.968641 8.40319L1.36352 8.69006L1.24089 8.18044L1.55814 7.85756H1.15427L0.968078 7.44188L0.809453 7.85813H0.335266L0.698079 8.18044L0.560266 8.69006ZM3.21864 8.40319L2.81027 8.69006L2.94808 8.18044L2.58527 7.85756H3.05945L3.21808 7.44188L3.40427 7.85813H3.80814L3.49089 8.18044L3.61352 8.69006L3.21864 8.40319ZM5.06027 8.69006L5.46864 8.40319L5.86351 8.69006L5.74089 8.18044L6.05814 7.85756H5.65427L5.46808 7.44188L5.30945 7.85813H4.83527L5.19808 8.18044L5.06027 8.69006ZM7.71864 8.40319L7.31027 8.69006L7.44808 8.18044L7.08527 7.85756H7.55889L7.71808 7.44188L7.90426 7.85813H8.30814L7.99089 8.18044L8.11351 8.69006L7.71864 8.40319ZM9.56026 4.19006L9.96864 3.90319L10.3635 4.19006L10.2409 3.68044L10.5581 3.35756H10.1543L9.96808 2.94188L9.80945 3.35813H9.33526L9.69808 3.68044L9.56026 4.19006ZM9.96864 6.15319L9.56026 6.44006L9.69808 5.93044L9.33526 5.60756H9.80945L9.96808 5.19188L10.1543 5.60813H10.5581L10.2409 5.93044L10.3635 6.44006L9.96864 6.15319ZM9.56026 8.69006L9.96864 8.40319L10.3635 8.69006L10.2409 8.18044L10.5581 7.85756H10.1543L9.96808 7.44188L9.80945 7.85813H9.33526L9.69808 8.18044L9.56026 8.69006ZM2.09364 5.02763L1.68527 5.3145L1.82308 4.80488L1.46027 4.482H1.93445L2.09308 4.06631L2.27927 4.48256H2.68314L2.36589 4.80488L2.48852 5.3145L2.09364 5.02763ZM3.93527 5.3145L4.34364 5.02763L4.73852 5.3145L4.61589 4.80488L4.93314 4.482H4.52927L4.34308 4.06631L4.18445 4.48256H3.71027L4.07308 4.80488L3.93527 5.3145ZM6.59364 5.02763L6.18527 5.3145L6.32308 4.80488L5.96027 4.482H6.43389L6.59308 4.06631L6.77926 4.48256H7.18314L6.86589 4.80488L6.98852 5.3145L6.59364 5.02763ZM1.68527 7.5645L2.09364 7.27763L2.48852 7.5645L2.36589 7.05488L2.68314 6.732H2.27927L2.09308 6.31631L1.93445 6.73256H1.46027L1.82308 7.05488L1.68527 7.5645ZM4.34364 7.27763L3.93527 7.5645L4.07308 7.05488L3.71027 6.732H4.18445L4.34308 6.31631L4.52927 6.73256H4.93314L4.61589 7.05488L4.73852 7.5645L4.34364 7.27763ZM6.18527 7.5645L6.59364 7.27763L6.98852 7.5645L6.86589 7.05488L7.18314 6.732H6.77926L6.59308 6.31631L6.43389 6.73256H5.96027L6.32308 7.05488L6.18527 7.5645ZM8.84364 5.02763L8.43526 5.3145L8.57308 4.80488L8.21026 4.482H8.68389L8.84308 4.06631L9.02926 4.48256H9.43314L9.11589 4.80488L9.23851 5.3145L8.84364 5.02763ZM8.43526 7.5645L8.84364 7.27763L9.23851 7.5645L9.11589 7.05488L9.43314 6.732H9.02926L8.84308 6.31631L8.68389 6.73256H8.21026L8.57308 7.05488L8.43526 7.5645Z" fill="#F7FCFF"/>
</g>
<defs>
<clipPath id="clip0_231_829">
<rect width="18" height="18" fill="white"/>
</clipPath>
</defs>
</svg>
